<svg width="1014" height="1014" viewBox="0 0 1014 1014" fill="none" xmlns="http://www.w3.org/2000/svg">
<path d="M959.995 944.683C959.995 944.987 757.195 945.231 507.021 945.231C256.846 945.231 54.0059 945.048 54.0059 944.683C54.0059 944.318 256.806 944.156 507.021 944.156C757.235 944.156 959.995 944.399 959.995 944.683Z" fill="#263238"/>
<path d="M640.239 453.177C641.348 434.398 642.47 415.618 643.606 396.839C643.748 394.568 644.092 391.952 646.039 390.755C646.988 390.381 648.008 390.223 649.026 390.293C650.043 390.363 651.032 390.66 651.92 391.161C685.22 404.566 709.658 441.719 712.578 477.472" fill="#2996CE"/>
<g opacity="0.3">
<path opacity="0.3" d="M651.555 410.224C659.355 415.335 665.867 422.181 670.581 430.227C675.296 438.273 678.085 447.301 678.73 456.604C679.1 458.852 678.623 461.157 677.392 463.073C676.76 463.761 675.992 464.309 675.136 464.682C674.281 465.056 673.357 465.247 672.423 465.243C670.553 465.223 668.696 464.936 666.907 464.392C662.425 463.236 657.7 461.978 654.374 458.734C651.334 455.511 649.593 451.278 649.487 446.849C649.406 442.458 649.856 438.073 650.825 433.789L656.504 443.483L650.42 412.09C650.324 411.814 650.289 411.521 650.317 411.23C650.345 410.94 650.435 410.659 650.582 410.406C650.927 409.96 651.9 410.122 651.839 410.69" fill="white"/>
</g>
<path d="M447.194 493.169C429.816 472.536 419.823 446.692 418.802 419.735L437.358 428.476L432.714 422.818C459.792 425.075 484.919 437.817 502.741 458.328" fill="#2996CE"/>
<g opacity="0.3">
<path opacity="0.3" d="M457.476 484.976C450.188 479.679 444.065 472.944 439.485 465.186C434.905 457.428 431.965 448.813 430.848 439.873C430.706 438.656 430.848 437.054 431.984 436.649C432.407 436.574 432.842 436.596 433.256 436.712C433.67 436.828 434.053 437.035 434.377 437.318L467.859 459.2C466.405 457.112 465.498 454.692 465.223 452.163L479.419 462.566C479.958 462.866 480.433 463.27 480.815 463.753C481.198 464.237 481.482 464.792 481.65 465.385C481.657 466.053 481.504 466.712 481.204 467.309C480.904 467.905 480.466 468.421 479.926 468.813C477.561 470.948 474.683 472.432 471.573 473.122C468.462 473.811 465.226 473.682 462.181 472.747L468.265 478.04C466.453 479.211 464.423 480.003 462.297 480.369C460.171 480.735 457.993 480.667 455.894 480.17C455.689 481.17 455.787 482.208 456.178 483.152C456.568 484.095 457.232 484.9 458.084 485.463" fill="white"/>
</g>
<path d="M825.395 670.153C825.395 670.153 851.353 696.983 863.156 694.752C863.156 694.752 822.15 651.13 804.912 610.874C796.679 591.838 786.87 573.522 775.587 556.118C783.355 542.733 790.27 527.584 793.434 512.273C784.715 522.385 774.777 531.376 763.845 539.042C762.953 537.785 762.04 536.548 761.107 535.291C770.28 526.992 776.394 515.849 778.467 503.654L737.481 501.889C738.765 500.042 739.923 498.111 740.949 496.11C720.815 478.804 698.271 464.52 674.025 453.704C626.874 426.874 521.925 418.011 470.82 461.634C425.048 488.322 412.778 522.474 376.72 530.93L355.345 528.598C355.345 528.598 347.03 573.214 374.348 593.149L354.068 588.444C354.068 588.444 357.799 606.21 377.755 625.8L365.303 624.279C365.303 624.279 370.697 652.225 387.935 658.938C387.935 658.938 361.003 662.304 353.459 652.225C353.459 652.225 344.495 694.002 385.279 709.759C385.279 709.759 263.071 724.077 297.426 873.683C305.538 908.625 353.703 933.772 409.168 945.92L808.684 944.358C833.02 936.409 862.061 855.775 863.136 823.348C864.211 790.92 848.068 728.275 848.068 728.275L863.197 748.413L825.395 670.153Z" fill="#2C96CF"/>
<path d="M368.771 732.493C345.835 731.114 323.304 748.94 319.39 771.593C334.313 761.695 351.353 755.443 369.136 753.341C362.132 759.783 357.251 768.201 355.139 777.48C353.028 786.759 353.786 796.46 357.313 805.299C360.27 797.399 364.8 790.182 370.628 784.085C376.457 777.988 383.463 773.138 391.221 769.829C385.922 776.221 382.361 783.873 380.883 792.044C379.405 800.215 380.06 808.629 382.785 816.473" fill="#2996CE"/>
<path d="M382.784 816.513C382.648 816.248 382.539 815.97 382.46 815.682C382.277 815.134 381.953 814.323 381.628 813.248C380.736 810.057 380.178 806.781 379.966 803.473C379.654 798.245 380.181 793 381.527 787.939C383.289 781.243 386.493 775.013 390.917 769.687L391.383 770.315C383.7 773.634 376.764 778.468 370.99 784.527C365.216 790.587 360.723 797.748 357.779 805.582L357.333 806.799L356.846 805.603C354.395 799.431 353.261 792.816 353.515 786.18C353.77 779.545 355.409 773.036 358.327 767.071C360.896 761.803 364.448 757.074 368.791 753.138L369.197 754.051C351.498 756.139 334.529 762.318 319.633 772.1L318.74 772.688L318.943 771.634C319.844 766.739 321.558 762.03 324.013 757.701C326.189 753.779 328.921 750.193 332.125 747.054C337.243 741.874 343.431 737.874 350.255 735.332C354.62 733.698 359.209 732.741 363.863 732.493C365.486 732.493 366.723 732.493 367.534 732.493H368.487H368.791H368.487H367.534C366.702 732.493 365.506 732.493 363.883 732.493C359.275 732.847 354.745 733.879 350.438 735.556C343.73 738.137 337.661 742.143 332.652 747.298C329.531 750.409 326.874 753.954 324.763 757.823C322.385 762.085 320.727 766.71 319.856 771.512L319.146 771.046C334.143 761.147 351.249 754.896 369.095 752.794L370.738 752.611L369.501 753.706C365.29 757.559 361.849 762.177 359.361 767.314C356.49 773.155 354.874 779.533 354.615 786.036C354.357 792.539 355.462 799.025 357.86 805.075H356.927C360.139 796.582 365.148 788.883 371.61 782.504C377.235 776.939 383.87 772.499 391.16 769.423L392.701 768.774L391.627 770.052C387.237 775.278 384.033 781.395 382.237 787.979C380.865 792.975 380.284 798.155 380.513 803.331C380.671 806.61 381.16 809.865 381.973 813.045C382.237 814.141 382.521 814.972 382.663 815.52C382.736 815.846 382.777 816.179 382.784 816.513V816.513Z" fill="#263238"/>
<path d="M787.533 795.422C799.915 792.803 812.821 794.529 824.079 800.309C835.337 806.09 844.26 815.572 849.347 827.16" fill="#2996CE"/>
<path d="M849.347 827.16C849.144 827.262 847.582 823.307 843.628 817.811C838.474 810.646 831.692 804.808 823.84 800.778C815.988 796.748 807.29 794.641 798.464 794.631C791.691 794.631 787.553 795.645 787.533 795.422C788.459 795.085 789.417 794.847 790.393 794.712C793.068 794.208 795.782 793.937 798.505 793.901C807.488 793.699 816.381 795.74 824.377 799.841C832.373 803.941 839.219 809.971 844.297 817.385C845.841 819.608 847.197 821.955 848.353 824.402C848.788 825.281 849.122 826.206 849.347 827.16V827.16Z" fill="#263238"/>
<g opacity="0.3">
<path opacity="0.3" d="M646.667 829.128C631.944 831.48 613.206 842.614 606.371 855.816C604.911 858.635 606.25 859.02 606.371 862.184C606.373 863.779 606.823 865.341 607.669 866.692C608.515 868.044 609.724 869.131 611.157 869.829C611.884 870.125 612.664 870.264 613.448 870.238C614.232 870.212 615.001 870.022 615.707 869.68C616.412 869.338 617.038 868.851 617.543 868.251C618.049 867.652 618.423 866.953 618.641 866.199C616.882 877.005 619.241 888.077 625.252 897.228C629.394 894.893 632.731 891.357 634.824 887.088C634.439 895.011 635.68 902.929 638.47 910.354C641.26 917.779 645.541 924.555 651.048 930.264L643.869 902.257C641.293 892.117 638.799 883.498 639.488 873.095C640.218 861.981 646.83 852.612 651.961 843.405C644.903 846.467 636.73 860.338 629.774 868.795C629.357 861.436 630.617 854.078 633.46 847.276C636.302 840.475 640.652 834.408 646.181 829.533" fill="black"/>
</g>
<path d="M643.91 902.582C643.678 902.205 643.487 901.804 643.342 901.385C643.038 900.574 642.45 899.357 641.963 897.796C640.441 893.243 639.521 888.512 639.225 883.721C638.744 876.428 639.604 869.107 641.76 862.123C644.412 853.247 649.147 845.132 655.571 838.456L656.28 839.186C650.353 844.499 644.726 850.139 639.428 856.08C636.005 859.986 632.982 864.225 630.403 868.734L629.612 870.134L629.43 868.552C628.533 860.188 630.053 851.742 633.81 844.216C636.921 837.837 641.544 832.316 647.276 828.134L647.662 828.823C643.632 830.324 639.938 832.605 636.791 835.536C634.419 837.737 632.37 840.263 630.708 843.04C629.653 844.808 628.744 846.66 627.99 848.576C627.774 849.267 627.517 849.944 627.219 850.604C627.196 850.429 627.196 850.252 627.219 850.077C627.321 849.712 627.442 849.184 627.666 848.515C628.333 846.535 629.196 844.626 630.241 842.817C631.884 839.954 633.934 837.345 636.325 835.07C639.508 832.047 643.258 829.683 647.357 828.114L650.075 827.079L647.722 828.803C642.191 832.971 637.746 838.411 634.763 844.662C631.152 852.031 629.697 860.27 630.566 868.43L629.592 868.227C632.206 863.659 635.262 859.36 638.718 855.39C644.047 849.418 649.714 843.758 655.692 838.436L656.402 839.166C650.073 845.715 645.376 853.663 642.693 862.366C640.515 869.25 639.594 876.47 639.975 883.681C640.21 888.432 641.021 893.138 642.389 897.694C642.835 899.296 643.362 900.473 643.606 901.304C643.734 901.723 643.836 902.15 643.91 902.582Z" fill="#263238"/>
<path d="M403.287 900.432C411.252 909.27 421.734 915.456 433.322 918.157C433.952 918.408 434.636 918.492 435.308 918.4C435.98 918.307 436.616 918.042 437.155 917.629C438.331 916.332 437.357 914.283 436.384 912.843L423.506 893.821C432.674 901.066 443.545 905.842 455.082 907.692C457.009 907.996 459.382 907.996 460.355 906.334C460.633 905.602 460.735 904.815 460.654 904.037C460.573 903.259 460.311 902.51 459.889 901.852C457.861 897.512 455.833 893.233 453.44 889.055" fill="#2996CE"/>
<path d="M453.44 888.974C453.688 889.286 453.899 889.627 454.068 889.988L455.691 893.03C456.421 894.389 457.252 896.011 458.226 897.856C458.74 898.803 459.267 899.817 459.808 900.898C460.483 902.035 460.918 903.298 461.085 904.61C461.142 905.394 460.911 906.173 460.436 906.8C459.915 907.421 459.201 907.849 458.408 908.017C456.841 908.256 455.241 908.181 453.703 907.794C450.352 907.218 447.05 906.384 443.827 905.299C436.361 902.807 429.383 899.04 423.202 894.165L423.973 893.456L426.204 896.761L433.383 907.388L436.81 912.438C437.418 913.304 437.865 914.272 438.128 915.297C438.283 915.861 438.255 916.46 438.047 917.007C437.839 917.554 437.463 918.02 436.972 918.339C436.019 918.821 434.922 918.937 433.89 918.664C432.937 918.501 432.085 918.218 431.193 918.015C429.428 917.508 427.745 916.98 426.163 916.372C423.203 915.26 420.34 913.903 417.605 912.316C413.639 910.036 409.968 907.278 406.674 904.103C405.518 902.967 404.646 902.075 404.119 901.405C403.813 901.09 403.541 900.743 403.308 900.371C403.663 900.625 403.99 900.918 404.281 901.243C404.869 901.852 405.762 902.724 406.958 903.798C410.323 906.825 414.017 909.464 417.97 911.667C420.694 913.191 423.535 914.493 426.467 915.561C428.049 916.149 429.712 916.656 431.436 917.143C433.16 917.629 435.086 918.299 436.465 917.528C436.787 917.312 437.029 916.997 437.153 916.631C437.278 916.264 437.278 915.867 437.155 915.5C436.916 914.607 436.51 913.768 435.958 913.026C434.843 911.383 433.707 909.7 432.531 907.996C430.206 904.549 427.806 901.007 425.332 897.37L423.101 894.064L421.073 891.225L423.851 893.334C432.597 900.253 442.901 904.931 453.866 906.962C455.293 907.343 456.781 907.439 458.246 907.246C458.864 907.165 459.429 906.851 459.824 906.369C460.22 905.887 460.417 905.272 460.376 904.65C460.235 903.423 459.849 902.237 459.24 901.162C458.713 900.087 458.206 899.134 457.739 898.1L455.366 893.212L453.906 890.089C453.701 889.74 453.544 889.365 453.44 888.974Z" fill="#263238"/>
<g opacity="0.3">
<path opacity="0.3" d="M453.318 774.25C457.8 781.813 464.361 787.93 472.219 791.873C471.77 787.707 470.042 783.782 467.271 780.638C475.829 788.789 485.968 795.098 497.062 799.174C492.339 801.278 487.182 802.228 482.019 801.948C476.856 801.668 471.833 800.165 467.365 797.562C462.896 794.96 459.111 791.332 456.319 786.98C453.528 782.627 451.811 777.673 451.311 772.526" fill="black"/>
</g>
<g opacity="0.3">
<path opacity="0.3" d="M399.049 642.085C415.151 673.053 467.23 688.344 508.074 689.013C520.688 689.196 538.494 698.524 550.987 697.308C579.034 694.61 601.808 679.502 629.916 677.028C647.418 675.547 665.021 675 682.32 672.059C699.619 669.118 698.828 667.07 712.578 656.139C726.327 645.208 741.193 634.379 740.97 616.816C715.133 648.453 689.6 658.248 649.831 667.516C610.062 676.784 568.711 676.581 527.928 674.695C483.049 672.667 435.938 667.719 399.049 642.065" fill="black"/>
</g>
<path d="M537.601 404.566C537.784 404.566 537.946 406.857 538.555 410.487C539.358 415.212 540.649 419.84 542.408 424.298C544.207 428.748 546.456 433.001 549.12 436.993C550.334 438.583 551.465 440.235 552.507 441.942C552.507 441.942 552.041 441.597 551.331 440.826C550.321 439.751 549.379 438.613 548.512 437.419C545.627 433.496 543.249 429.223 541.434 424.704C539.616 420.15 538.402 415.377 537.824 410.508C537.634 409.048 537.525 407.579 537.5 406.107C537.459 405.591 537.493 405.072 537.601 404.566V404.566Z" fill="#2996CE"/>
<path d="M550.845 399.516C551.027 399.516 550.216 401.544 549.425 404.931C548.425 409.304 548.09 413.802 548.431 418.275C548.797 422.741 549.844 427.125 551.534 431.274C552.832 434.479 553.948 436.324 553.785 436.405C553.623 436.486 553.4 436.02 552.852 435.209C552.09 434.049 551.412 432.836 550.825 431.579C546.932 423.177 546.177 413.659 548.695 404.748C549.057 403.415 549.525 402.113 550.094 400.854C550.52 399.881 550.784 399.394 550.845 399.516Z" fill="#2996CE"/>
<path d="M302.638 736.57C302.879 736.278 303.151 736.012 303.449 735.779C303.996 735.292 304.787 734.521 305.903 733.751C309.019 731.274 312.313 729.031 315.759 727.038C327.205 720.552 339.662 716.041 352.608 713.694C365.515 711.344 378.59 710.042 391.707 709.8C396.737 709.678 400.793 709.638 403.591 709.638H406.836C407.214 709.606 407.594 709.606 407.972 709.638C407.6 709.73 407.219 709.778 406.836 709.78L403.612 709.942L391.728 710.449C378.675 710.865 365.669 712.221 352.81 714.505C339.974 716.849 327.591 721.217 316.124 727.444C312.681 729.381 309.356 731.521 306.166 733.852C303.915 735.657 302.699 736.63 302.638 736.57Z" fill="#2996CE"/>
<path d="M593.352 408.318C593.352 408.5 589.884 407.344 584.246 405.965C580.968 405.159 577.603 404.757 574.227 404.769C570.126 404.797 566.109 405.94 562.607 408.074C560.828 409.182 559.279 410.62 558.044 412.313C556.933 413.913 556.154 415.72 555.752 417.626C555.172 420.93 555.318 424.321 556.178 427.563C557.578 433.161 559.078 436.486 558.875 436.568C558.415 435.85 558.041 435.081 557.76 434.276C556.84 432.155 556.067 429.973 555.448 427.746C554.459 424.404 554.237 420.883 554.799 417.444C555.197 415.393 556.011 413.447 557.192 411.725C558.499 409.905 560.145 408.356 562.039 407.162C565.707 404.939 569.918 403.774 574.207 403.795C577.637 403.828 581.047 404.319 584.347 405.255C587.166 406.006 589.397 406.776 590.938 407.283C591.775 407.546 592.584 407.893 593.352 408.318Z" fill="#2996CE"/>
<path d="M897.613 916.534C895.422 901.973 888.284 887.635 876.096 879.341C863.907 871.046 846.365 870.073 834.765 879.178L786.62 944.277L889.115 944.703C894.834 939.41 898.769 924.241 897.613 916.534Z" fill="#2996CE"/>
<g opacity="0.3">
<path opacity="0.3" d="M829.451 943.345C838.111 939.735 844.499 931.967 848.434 923.45C852.368 914.932 854.092 905.603 855.815 896.376C857.235 888.73 858.574 880.476 855.248 873.419C854.454 873.376 853.662 873.541 852.951 873.896C852.24 874.252 851.634 874.786 851.192 875.447C850.302 876.793 849.65 878.281 849.265 879.848C841.336 904.873 829.107 926.492 809.131 943.426" fill="black"/>
</g>
<g opacity="0.3">
<path opacity="0.3" d="M525.009 434.823C535.149 464.047 536.426 495.663 535.331 526.469C534.784 541.841 533.628 557.376 528.821 571.997C524.015 586.619 515.193 600.389 502.092 608.501C489.721 616.147 474.43 618.155 459.991 616.248C445.552 614.342 431.842 608.806 418.843 602.275C403.998 594.812 389.701 585.889 378.181 573.883C366.662 561.878 357.212 545.106 355.306 528.618L376.681 530.951C376.681 530.951 393.128 529.207 418.701 504.465C446.647 477.452 451.737 474.146 472.666 460.072C488.898 449.338 506.504 440.845 525.009 434.823V434.823Z" fill="white"/>
</g>
<g opacity="0.3">
<path opacity="0.3" d="M613.348 614.95C617.391 612.671 622.068 611.776 626.667 612.402C631.266 613.028 635.534 615.141 638.82 618.418C642.073 614.166 646.475 610.933 651.505 609.1C656.536 607.268 661.986 606.912 667.212 608.076C660.874 610.568 654.974 614.052 649.731 618.398C644.721 623.002 641.112 629.613 641.74 636.386C635.474 629.637 628.268 623.824 620.345 619.128C617.059 617.1 612.74 615.457 609.657 617.729" fill="black"/>
</g>
<path d="M683.192 843.425C671.419 851.875 662.742 863.952 658.489 877.805C654.237 891.658 654.643 906.524 659.646 920.124" fill="#2996CE"/>
<path d="M659.646 920.124C659.48 919.88 659.35 919.614 659.261 919.333C659.058 918.785 658.713 918.015 658.369 916.96C657.38 914.03 656.628 911.026 656.117 907.976C654.347 897.858 654.995 887.465 658.008 877.646C661.022 867.826 666.315 858.859 673.457 851.476C675.591 849.262 677.904 847.227 680.372 845.392C681.224 844.723 681.954 844.256 682.4 843.932C682.846 843.607 683.151 843.465 683.171 843.506C682.353 844.288 681.493 845.026 680.595 845.717C678.26 847.691 676.052 849.811 673.984 852.064C667.082 859.475 661.951 868.356 658.979 878.037C656.008 887.719 655.272 897.949 656.827 907.956C657.278 910.982 657.922 913.976 658.754 916.92C659.123 917.966 659.421 919.037 659.646 920.124V920.124Z" fill="#263238"/>
<path d="M723.529 773.216C731.824 766.848 742.532 760.155 751.922 764.637C754.522 766.063 756.752 768.079 758.433 770.524C760.113 772.968 761.196 775.772 761.595 778.711C762.325 784.596 761.953 790.565 760.5 796.314C753.69 829.859 738.893 861.268 717.364 887.879C709.557 897.532 698.443 907.307 686.316 904.65C674.999 902.156 668.571 889.217 669.24 877.637C669.909 866.057 675.75 855.532 681.165 845.189C694.022 820.853 706.515 794.165 723.469 773.134" fill="#2996CE"/>
<path d="M723.529 773.216C723.368 773.482 723.192 773.739 723.002 773.986L721.38 776.156C719.94 778.063 717.851 780.922 715.296 784.674C708.228 795.369 701.756 806.445 695.908 817.852L683.74 841.458C679.441 849.975 674.026 858.777 671.207 869.079C669.692 874.311 669.408 879.822 670.376 885.181C671.396 890.76 674.158 895.872 678.264 899.783C680.393 901.7 682.942 903.09 685.707 903.839C688.539 904.572 691.501 904.648 694.367 904.062C700.232 902.549 705.583 899.489 709.861 895.2C714.237 890.965 718.221 886.342 721.765 881.389C725.415 876.603 728.701 871.655 731.905 866.747C743.263 848.612 751.854 828.886 757.397 808.219C758.614 803.622 759.655 799.147 760.52 794.794C761.438 790.667 761.853 786.446 761.757 782.22C761.514 774.25 757.336 767.01 751.394 764.597C748.663 763.442 745.661 763.083 742.735 763.562C740.267 763.978 737.867 764.722 735.596 765.773C732.452 767.263 729.446 769.027 726.612 771.046L724.381 772.628C723.894 772.972 723.611 773.135 723.611 773.135L724.32 772.546C724.807 772.141 725.517 771.593 726.49 770.883C729.28 768.774 732.269 766.94 735.414 765.408C737.704 764.291 740.142 763.506 742.654 763.076C745.908 762.476 749.269 762.917 752.258 764.337C755.247 765.757 757.712 768.083 759.303 770.985C761.264 774.4 762.358 778.244 762.487 782.179C762.626 786.463 762.238 790.747 761.331 794.936C760.459 799.316 759.445 803.818 758.249 808.442C752.747 829.206 744.168 849.03 732.797 867.254C729.634 872.202 726.328 877.151 722.657 881.977C719.077 886.987 715.052 891.663 710.631 895.95C706.216 900.372 700.687 903.518 694.63 905.056C691.608 905.669 688.486 905.579 685.504 904.792C682.573 903.984 679.876 902.489 677.636 900.432C673.388 896.366 670.547 891.053 669.524 885.263C668.526 879.754 668.824 874.088 670.396 868.714C673.296 858.209 678.771 849.408 683.071 840.931C687.37 832.453 691.629 824.585 695.401 817.385C701.315 805.988 707.897 794.95 715.113 784.329C717.709 780.598 719.859 777.779 721.339 775.913L723.063 773.885C723.208 773.655 723.364 773.432 723.529 773.216V773.216Z" fill="#263238"/>
<g opacity="0.3">
<path opacity="0.3" d="M724.543 802.135V802.236C726.571 796.517 730.891 794.875 735.535 793.191C740.179 791.508 745.796 791.691 749.528 794.935C753.827 798.667 754.375 805.238 753.219 810.815C752.946 812.785 752.139 814.644 750.887 816.189C750.239 816.94 749.368 817.464 748.402 817.687C747.435 817.909 746.423 817.818 745.512 817.426C743.484 816.311 742.856 813.37 740.706 812.478C738.556 811.585 735.717 813.593 733.121 814.242C731.345 814.585 729.505 814.304 727.913 813.447C726.32 812.59 725.072 811.208 724.381 809.537C723.915 808.354 723.689 807.091 723.717 805.82C723.745 804.549 724.026 803.296 724.543 802.135V802.135Z" fill="black"/>
</g>
<g opacity="0.3">
<path opacity="0.3" d="M733.385 773.581C734.427 774.045 735.295 774.826 735.867 775.813C736.439 776.8 736.684 777.942 736.569 779.076C736.468 781.622 735.912 784.129 734.926 786.479C734.216 788.507 733.02 790.758 730.87 790.839C730.267 790.822 729.678 790.652 729.159 790.343C728.641 790.034 728.211 789.597 727.909 789.075C727.327 788.015 727.001 786.835 726.956 785.627C726.754 782.863 727.184 780.088 728.213 777.515C728.657 776.174 729.49 774.995 730.606 774.128C731.17 773.702 731.857 773.472 732.563 773.472C733.27 773.472 733.957 773.702 734.52 774.128" fill="black"/>
</g>
<g opacity="0.3">
<path opacity="0.3" d="M757.68 778.57C758.722 779.034 759.591 779.815 760.163 780.802C760.735 781.788 760.98 782.931 760.864 784.065C760.762 786.611 760.205 789.118 759.222 791.468C758.512 793.496 757.295 795.747 755.166 795.828C754.562 795.813 753.972 795.643 753.454 795.334C752.935 795.025 752.505 794.587 752.205 794.063C751.605 793.012 751.277 791.827 751.252 790.616C751.053 787.853 751.476 785.082 752.489 782.504C752.94 781.161 753.78 779.982 754.902 779.117C755.464 778.688 756.152 778.455 756.859 778.455C757.566 778.455 758.254 778.688 758.816 779.117" fill="black"/>
</g>
<g opacity="0.3">
<path opacity="0.3" d="M747.419 769.281C748.457 769.756 749.321 770.543 749.891 771.531C750.462 772.52 750.711 773.661 750.603 774.797C750.492 777.335 749.936 779.834 748.96 782.179C748.23 784.207 747.034 786.479 744.904 786.54C744.301 786.525 743.711 786.355 743.192 786.046C742.673 785.737 742.243 785.299 741.943 784.775C741.359 783.725 741.039 782.549 741.011 781.348C740.791 778.585 741.214 775.808 742.248 773.236C742.689 771.888 743.531 770.706 744.661 769.849C745.221 769.425 745.905 769.195 746.608 769.195C747.311 769.195 747.994 769.425 748.555 769.849" fill="black"/>
</g>
<g opacity="0.3">
<path opacity="0.3" d="M739.55 852.186C737.931 864.456 734.593 876.438 729.633 887.777C724.632 899.163 716.983 909.189 707.325 917.021C702.863 920.509 697.631 923.511 691.973 923.653C683.962 923.855 676.661 918.116 673.051 910.957C669.442 903.798 668.995 895.484 669.36 887.493C673.234 893.963 677.594 900.858 684.611 903.717C687.712 904.757 691.001 905.114 694.253 904.764C697.505 904.414 700.642 903.365 703.451 901.689C709.049 898.298 713.943 893.865 717.87 888.629C726.56 878.022 733.702 866.237 739.083 853.626" fill="black"/>
</g>
<path d="M285.339 774.838C275.361 771.776 263.031 769.241 255.69 776.744C253.766 779.001 252.397 781.677 251.693 784.557C250.989 787.438 250.968 790.443 251.634 793.333C253.004 799.107 255.439 804.574 258.813 809.456C276.941 838.49 301.786 862.737 331.253 880.152C341.941 886.439 355.772 891.712 366.195 884.958C375.95 878.672 377.41 864.293 372.746 853.687C368.081 843.08 358.955 835.191 350.215 827.424C329.651 809.172 308.6 788.527 285.319 774.696" fill="#2996CE"/>
<path d="M285.339 774.838C285.339 774.838 285.623 774.96 286.171 775.264L288.503 776.643C290.531 777.88 293.553 779.766 297.304 782.342C307.78 789.769 317.809 797.807 327.339 806.414L347.153 824.139C354.149 830.567 362.363 836.895 368.751 845.717C372.111 850.196 374.381 855.397 375.382 860.906C376.423 866.702 375.607 872.678 373.05 877.982C371.662 880.684 369.662 883.024 367.21 884.816C364.689 886.606 361.787 887.786 358.732 888.264C352.496 888.965 346.187 887.955 340.48 885.344C334.821 882.876 329.391 879.91 324.256 876.481C319.146 873.237 314.299 869.748 309.614 866.24C300.725 859.369 292.385 851.815 284.67 843.648C277.652 836.252 271.173 828.363 265.282 820.042C262.544 816.128 260.009 812.255 257.677 808.462C255.353 804.858 253.48 800.983 252.1 796.923C250.845 793.191 250.525 789.208 251.167 785.323C251.64 782.048 253.134 779.006 255.435 776.629C257.735 774.252 260.727 772.66 263.984 772.08C266.491 771.615 269.049 771.493 271.589 771.715C275.073 772.064 278.516 772.743 281.871 773.743C283.027 774.067 283.899 774.331 284.467 774.534L285.339 774.858L284.447 774.635L281.81 773.946C278.448 773.052 275.015 772.448 271.549 772.141C269.052 771.957 266.542 772.107 264.086 772.587C261.171 773.177 258.484 774.583 256.339 776.643C251.613 781.003 250.255 789.237 252.81 796.781C254.198 800.77 256.064 804.577 258.367 808.117C260.719 811.89 263.261 815.722 265.992 819.616C278.43 837.026 293.392 852.487 310.385 865.49C315.049 868.998 319.876 872.466 324.966 875.63C330.024 879.027 335.38 881.96 340.967 884.391C346.467 886.922 352.55 887.917 358.57 887.27C361.491 886.826 364.268 885.708 366.682 884.005C369.009 882.318 370.9 880.1 372.198 877.536C374.671 872.437 375.466 866.687 374.47 861.109C373.509 855.747 371.308 850.684 368.041 846.325C361.795 837.645 353.642 831.297 346.646 824.828L326.933 807.002C317.461 798.345 307.515 790.221 297.142 782.666C293.451 780.03 290.49 778.103 288.483 776.805L286.191 775.345L285.339 774.838Z" fill="#263238"/>
<g opacity="0.3">
<path opacity="0.3" d="M294.546 802.257C290.632 797.612 286.028 797.572 281.08 797.633C276.132 797.694 270.94 799.843 268.588 804.163C265.87 809.192 267.655 815.52 270.616 820.387C271.546 822.14 272.952 823.595 274.672 824.585C275.536 825.07 276.534 825.262 277.517 825.134C278.5 825.007 279.415 824.565 280.127 823.875C281.648 822.111 281.222 819.17 282.885 817.548C284.548 815.925 287.975 816.838 290.612 816.554C292.395 816.252 294.02 815.345 295.213 813.986C296.406 812.627 297.094 810.898 297.162 809.091C297.217 806.558 296.278 804.105 294.546 802.257V802.257Z" fill="black"/>
</g>
<g opacity="0.3">
<path opacity="0.3" d="M276.233 778.61C275.421 779.415 274.882 780.455 274.692 781.583C274.503 782.712 274.673 783.871 275.179 784.897C276.145 787.236 277.518 789.385 279.235 791.244C280.594 792.847 282.541 794.591 284.528 793.921C285.088 793.695 285.581 793.328 285.957 792.855C286.334 792.383 286.582 791.821 286.678 791.224C286.86 790.034 286.756 788.817 286.373 787.675C285.579 785.007 284.192 782.553 282.317 780.496C281.431 779.387 280.229 778.574 278.87 778.164C278.19 777.977 277.469 778.017 276.814 778.277C276.159 778.536 275.606 779.002 275.24 779.604" fill="black"/>
</g>
<g opacity="0.3">
<path opacity="0.3" d="M255.243 791.812C254.432 792.614 253.894 793.651 253.704 794.775C253.515 795.9 253.684 797.056 254.188 798.079C255.153 800.418 256.527 802.568 258.244 804.426C259.623 806.029 261.55 807.773 263.558 807.103C264.116 806.874 264.606 806.505 264.982 806.033C265.358 805.562 265.608 805.001 265.707 804.406C265.883 803.214 265.772 801.997 265.383 800.857C264.596 798.186 263.209 795.73 261.327 793.678C260.441 792.569 259.238 791.756 257.879 791.346C257.2 791.159 256.478 791.199 255.823 791.459C255.168 791.718 254.616 792.184 254.249 792.786" fill="black"/>
</g>
<g opacity="0.3">
<path opacity="0.3" d="M261.611 779.523C260.8 780.324 260.262 781.361 260.072 782.486C259.883 783.61 260.052 784.766 260.556 785.789C261.522 788.129 262.895 790.278 264.612 792.137C265.991 793.739 267.918 795.483 269.926 794.814C270.485 794.586 270.976 794.218 271.353 793.746C271.729 793.273 271.978 792.712 272.075 792.117C272.251 790.925 272.14 789.708 271.751 788.568C270.964 785.896 269.577 783.441 267.695 781.388C266.809 780.279 265.607 779.466 264.247 779.056C263.568 778.87 262.846 778.909 262.191 779.169C261.537 779.429 260.984 779.894 260.617 780.496" fill="black"/>
</g>
<g opacity="0.3">
<path opacity="0.3" d="M298.115 854.396C303.91 865.3 311.208 875.335 319.795 884.208C328.427 893.138 339.074 899.87 350.843 903.839C356.238 905.563 362.18 906.536 367.534 904.691C375.118 902.075 379.925 894.145 380.797 886.175C381.669 878.205 379.235 870.235 376.031 862.894C374.672 870.316 373.009 878.306 367.412 883.376C364.893 885.439 361.957 886.932 358.806 887.751C355.656 888.57 352.365 888.697 349.16 888.122C342.728 886.914 336.587 884.483 331.07 880.963C319.226 874.063 308.412 865.529 298.947 855.613" fill="black"/>
</g>
<g opacity="0.3">
<path opacity="0.3" d="M290.571 843.384C289.983 844.196 289.395 845.027 288.827 845.858C291.332 841.819 294.629 838.328 298.521 835.599C302.412 832.869 306.816 830.957 311.467 829.977C316.119 828.997 320.92 828.971 325.582 829.899C330.244 830.827 334.669 832.691 338.59 835.377C342.511 838.063 345.847 841.517 348.396 845.529C350.946 849.541 352.655 854.028 353.421 858.719C354.187 863.41 353.994 868.208 352.854 872.822C351.714 877.437 349.65 881.772 346.788 885.567C323.988 876.245 303.349 862.336 286.15 844.702" fill="white"/>
</g>
<path d="M863.117 823.368C863.133 823.823 863.099 824.279 863.015 824.727C862.873 825.741 862.691 827.018 862.488 828.62C862.021 832.007 861.231 836.874 860.115 842.816C857.356 858.507 853.202 873.92 847.704 888.872C844.544 897.076 840.725 905.011 836.286 912.6C835.252 914.344 834.136 915.966 833.122 917.589L831.581 919.962L829.938 922.172L826.815 926.33C825.741 927.607 824.666 928.804 823.652 929.939C822.638 931.075 821.725 932.231 820.711 933.164L817.912 935.861L815.459 938.193L813.228 939.958L810.125 942.391C809.782 942.697 809.4 942.957 808.989 943.162C809.296 942.82 809.628 942.501 809.983 942.209L812.964 939.654L815.114 937.828L817.487 935.435L820.224 932.718C821.218 931.765 822.09 930.588 823.084 929.453L826.166 925.823L829.229 921.645L830.831 919.455C831.338 918.684 831.825 917.893 832.332 917.082C833.346 915.459 834.36 913.837 835.455 912.113C839.774 904.54 843.509 896.648 846.629 888.507C852.124 873.631 856.39 858.329 859.385 842.756C860.582 836.793 861.413 831.946 862.082 828.56C862.366 826.978 862.61 825.7 862.792 824.706C862.866 824.253 862.975 823.805 863.117 823.368V823.368Z" fill="#263238"/>
<path d="M396.555 700.349C396.82 699.984 397.134 699.657 397.488 699.376L400.307 696.74C401.544 695.584 403.065 694.205 404.89 692.684C406.715 691.163 408.743 689.317 411.095 687.451C415.74 683.619 421.438 679.339 427.948 674.675C434.458 670.011 441.82 665.367 449.769 660.743C457.719 656.119 465.527 652.144 472.706 648.737C479.885 645.33 486.537 642.653 492.175 640.483C494.974 639.368 497.549 638.455 499.8 637.684C502.051 636.914 504.018 636.244 505.621 635.758L509.332 634.622C509.751 634.466 510.186 634.358 510.63 634.298C510.232 634.506 509.819 634.683 509.393 634.825L505.742 636.143C504.16 636.691 502.234 637.38 500.003 638.171C497.772 638.962 495.217 639.935 492.439 641.091C486.862 643.302 480.271 646.161 473.132 649.548C465.993 652.935 458.328 657.072 450.216 661.615C442.104 666.157 434.965 670.944 428.415 675.446C421.864 679.948 416.247 684.247 411.481 687.999C409.108 689.824 407.039 691.589 405.194 693.11C403.349 694.631 401.767 695.928 400.509 697.044L397.548 699.538C397.25 699.846 396.916 700.119 396.555 700.349Z" fill="#263238"/>
<path d="M339.466 666.482C339.466 666.482 339.588 666.381 339.831 666.198L340.967 665.427L345.428 662.588C347.355 661.351 349.728 659.871 352.567 658.269C355.406 656.666 358.651 654.72 362.22 652.854L367.898 649.832C369.926 648.798 371.954 647.804 374.165 646.749C378.464 644.58 383.21 642.552 388.158 640.341C398.156 636.123 409.31 631.905 421.275 628.173C433.241 624.441 444.861 621.744 455.508 619.635C460.842 618.682 465.912 617.708 470.698 617.08C473.07 616.755 475.382 616.37 477.593 616.127L484.001 615.417C488.057 614.93 491.769 614.727 495.013 614.484C498.258 614.241 501.097 614.099 503.369 614.038L508.642 613.896H510C510.161 613.865 510.326 613.865 510.487 613.896H510.021L508.642 614.017L503.389 614.362C501.097 614.484 498.299 614.646 495.074 614.971C491.85 615.295 488.139 615.518 484.083 616.066L477.694 616.836C475.484 617.1 473.192 617.506 470.819 617.85C466.054 618.499 461.004 619.513 455.691 620.487C445.104 622.657 433.524 625.455 421.58 629.086C409.635 632.716 398.521 636.954 388.543 641.112C383.595 643.282 378.85 645.289 374.55 647.419C372.38 648.473 370.251 649.447 368.263 650.44L362.565 653.401C358.914 655.227 355.71 657.092 352.871 658.654C350.032 660.215 347.598 661.635 345.631 662.811L341.088 665.488L339.892 666.157C339.628 666.441 339.466 666.502 339.466 666.482Z" fill="#263238"/>
<path d="M581.143 599.639C581.264 599.943 576.032 602.154 570.252 606.027C564.473 609.901 560.396 613.855 560.112 613.612C565.651 607.078 572.919 602.235 581.082 599.639H581.143Z" fill="#263238"/>
<path d="M615.457 610.651C615.457 610.854 612.456 609.495 607.487 608.238C601.014 606.547 594.306 605.931 587.633 606.413C580.957 606.692 574.422 608.429 568.489 611.503C566.127 612.924 564.094 614.833 562.526 617.1C562.733 616.362 563.085 615.673 563.561 615.072C564.792 613.389 566.334 611.957 568.103 610.854C572.524 607.954 579.643 605.946 587.552 605.338C594.339 604.846 601.159 605.574 607.69 607.487C609.659 608.037 611.589 608.715 613.47 609.515C614.171 609.821 614.838 610.202 615.457 610.651Z" fill="#263238"/>
<path d="M548.817 627.565L551.189 633.243C551.89 634.712 552.369 636.277 552.609 637.887C552.723 638.696 552.663 639.52 552.432 640.304C552.201 641.087 551.805 641.812 551.271 642.43C550.357 643.201 549.217 643.652 548.023 643.715C546.829 643.777 545.648 643.447 544.659 642.775C542.738 641.352 541.318 639.357 540.603 637.076C539.752 634.845 539.184 632.493 538.149 630.343C539.464 629.144 540.456 627.633 541.034 625.949C541.612 624.266 541.757 622.464 541.455 620.71C541.455 620.71 543.503 627.2 548.817 627.565Z" fill="#F5F5F5"/>
<path d="M515.699 606.879C517.496 603.261 520.027 600.058 523.131 597.474C526.235 594.89 529.845 592.982 533.728 591.872C546.667 588.465 560.092 602.012 560.092 602.012C560.092 602.012 544.456 597.408 544.679 605.176C544.902 612.943 549.506 612.76 544.314 617.871C539.123 622.981 530.22 617.607 528.09 611.584L523.913 605.703L515.699 606.879Z" fill="#263238"/>
<path d="M569.28 614.484C569.28 614.484 569.28 614.748 569.381 615.214C569.449 615.922 569.449 616.635 569.381 617.343C569.01 619.942 567.96 622.397 566.339 624.462C565.155 626.029 563.666 627.34 561.962 628.316C560.257 629.292 558.373 629.912 556.422 630.14C554.014 630.324 551.596 629.936 549.365 629.01C547.135 628.083 545.154 626.643 543.585 624.807C542.031 623.022 540.938 620.885 540.401 618.581L541.395 618.297C542.005 620.205 542.17 622.228 541.878 624.211C541.587 626.193 540.845 628.083 539.711 629.735C538.177 631.883 536.007 633.495 533.507 634.343C531.007 635.191 528.304 635.232 525.779 634.46C525.247 634.298 524.731 634.088 524.238 633.831C523.913 633.649 523.751 633.547 523.751 633.507C523.751 633.466 524.501 633.791 525.88 634.115C527.829 634.56 529.853 634.56 531.802 634.115C534.724 633.457 537.284 631.709 538.961 629.228C539.985 627.682 540.647 625.927 540.9 624.091C541.153 622.255 540.989 620.385 540.421 618.621L541.415 618.357C541.932 620.489 542.955 622.464 544.396 624.117C545.857 625.831 547.697 627.181 549.771 628.061C551.844 628.94 554.093 629.326 556.341 629.187C558.178 628.987 559.957 628.425 561.575 627.534C563.194 626.643 564.62 625.44 565.771 623.995C567.381 622.052 568.482 619.738 568.975 617.262C569.239 615.559 569.178 614.484 569.28 614.484Z" fill="#263238"/>
<path d="M544.214 593.778C542.871 593.979 541.512 594.04 540.158 593.961C536.877 593.926 533.607 594.349 530.443 595.218C527.318 596.13 524.482 597.835 522.21 600.166C520.526 602.012 519.918 603.492 519.756 603.431C520.023 602.025 520.684 600.724 521.662 599.68C523.874 597.045 526.828 595.137 530.139 594.204C533.404 593.299 536.799 592.963 540.178 593.21C541.544 593.189 542.906 593.38 544.214 593.778V593.778Z" fill="white"/>
<path d="M548.107 644.174C546.151 640.886 544.676 637.335 543.726 633.628C542.459 630.022 541.721 626.252 541.536 622.434C541.84 622.434 542.915 627.342 544.74 633.324C546.566 639.307 548.391 644.052 548.107 644.174Z" fill="#263238"/>
<path d="M403.713 666.908C403.959 666.645 404.231 666.408 404.524 666.198L406.978 664.292C409.006 662.649 412.312 660.398 416.347 657.762C420.383 655.125 425.291 652.164 430.908 649.122C436.526 646.08 442.853 643.038 449.667 640.26C456.481 637.481 463.113 635.21 469.217 633.365C475.322 631.519 480.919 630.181 485.644 629.309C490.369 628.437 494.222 627.686 496.899 627.281L499.982 626.895C500.339 626.855 500.7 626.855 501.057 626.895C500.721 627.04 500.366 627.136 500.002 627.179L496.96 627.747C494.304 628.193 490.491 628.964 485.806 630.018C481.122 631.073 475.666 632.493 469.582 634.338C463.498 636.184 456.928 638.516 450.134 641.274C443.34 644.032 437.073 647.094 431.436 650.035C425.798 652.975 420.89 655.876 416.814 658.431C412.737 660.986 409.513 663.136 407.302 664.677L404.727 666.401C404.058 666.766 403.733 666.948 403.713 666.908Z" fill="#263238"/>
<path d="M505.332 577.57C511.189 553.002 496.021 528.337 471.453 522.479C446.885 516.622 422.22 531.79 416.363 556.358C410.505 580.926 425.673 605.591 450.241 611.448C474.81 617.306 499.474 602.138 505.332 577.57Z" fill="#F5F5F5"/>
<path d="M506.615 567.029C506.615 589.094 491.709 607.001 479.095 607.001C466.48 607.001 456.3 589.094 456.3 567.029C456.3 544.964 466.44 527.037 479.176 527.037C491.911 527.037 506.615 544.944 506.615 567.029Z" fill="#263238"/>
<path d="M489.234 552.245C493.558 552.245 497.062 548.74 497.062 544.417C497.062 540.093 493.558 536.589 489.234 536.589C484.911 536.589 481.406 540.093 481.406 544.417C481.406 548.74 484.911 552.245 489.234 552.245Z" fill="white"/>
<path d="M468.995 596.07C468.539 595.484 468.157 594.844 467.859 594.163C466.903 592.368 466.083 590.504 465.405 588.586C464.353 585.751 463.533 582.834 462.951 579.866C462.262 576.227 461.882 572.537 461.816 568.834C461.803 565.123 462.108 561.419 462.728 557.761C463.249 554.784 464.008 551.854 465 549C465.634 547.071 466.414 545.193 467.332 543.382C467.607 542.662 467.975 541.98 468.427 541.354C468.61 541.354 467.21 544.295 465.71 549.162C464.838 552.006 464.161 554.906 463.682 557.842C463.129 561.445 462.858 565.087 462.87 568.732C462.936 572.377 463.282 576.011 463.905 579.602C464.438 582.537 465.176 585.431 466.115 588.262C467.717 593.17 469.177 595.989 468.995 596.07Z" fill="white"/>
<path d="M449.262 508.785C449.14 510.265 447.437 511.401 445.206 512.455C442.975 513.51 439.954 514.483 436.972 515.842C433.991 517.201 431.375 518.377 429.144 519.391C426.913 520.405 425.088 521.013 423.77 520.223C422.452 519.432 422.29 517.221 423.77 514.281C425.77 510.57 429.027 507.694 432.957 506.168C436.72 504.51 440.921 504.126 444.922 505.073C447.782 505.844 449.384 507.365 449.262 508.785Z" fill="#263238"/>
<path d="M231.009 898.404L241.291 882.302C290.247 936.084 452 1000.05 596.819 855.471C659.018 793.374 653.989 688.445 653.989 688.445L641.618 649.589H653.989C653.989 649.589 689.844 715.722 652.305 802.317C652.305 802.317 613.773 904.954 495.805 942.249C309.715 1001.02 231.009 898.404 231.009 898.404Z" fill="#2996CE"/>
<g opacity="0.7">
<path opacity="0.7" d="M231.009 898.404L241.291 882.302C290.247 936.084 452 1000.05 596.819 855.471C659.018 793.374 653.989 688.445 653.989 688.445L641.618 649.589H653.989C653.989 649.589 689.844 715.722 652.305 802.317C652.305 802.317 613.773 904.954 495.805 942.249C309.715 1001.02 231.009 898.404 231.009 898.404Z" fill="white"/>
</g>
<path d="M228.235 918.081C262.568 883.748 262.568 828.084 228.235 793.752C193.903 759.419 138.239 759.419 103.907 793.752C69.5742 828.084 69.5741 883.748 103.907 918.081C138.239 952.413 193.903 952.413 228.235 918.081Z" fill="#2996CE"/>
<g opacity="0.7">
<path opacity="0.7" d="M228.235 918.081C262.568 883.748 262.568 828.084 228.235 793.752C193.903 759.419 138.239 759.419 103.907 793.752C69.5742 828.084 69.5741 883.748 103.907 918.081C138.239 952.413 193.903 952.413 228.235 918.081Z" fill="white"/>
</g>
<path d="M187.144 770.457C187.097 771.02 186.995 771.577 186.84 772.12C186.596 773.297 186.231 774.878 185.805 776.886C185.562 777.92 185.298 779.076 185.014 780.314C184.73 781.551 184.284 782.889 183.879 784.37C183.007 787.249 182.175 790.575 180.837 794.124L178.809 799.721C178.119 801.749 177.247 803.636 176.416 805.704C174.834 809.862 172.725 814.141 170.595 818.663C165.716 828.373 160.145 837.719 153.925 846.629C147.577 855.454 140.603 863.81 133.057 871.634C129.467 875.143 126.142 878.53 122.734 881.409C121.072 882.87 119.49 884.35 117.888 885.648L113.243 889.359C110.343 891.793 107.484 893.679 105.131 895.443C103.894 896.315 102.779 897.147 101.704 897.856L98.723 899.742L94.667 902.298C94.2045 902.627 93.7082 902.906 93.1865 903.129C93.6175 902.763 94.0713 902.424 94.5453 902.115L98.6013 899.398L101.522 897.37C102.576 896.619 103.671 895.768 104.888 894.896C107.281 893.091 110.1 891.144 113 888.69L117.583 884.958C119.185 883.64 120.727 882.16 122.369 880.679C125.736 877.779 129.042 874.372 132.509 870.864C139.944 863.062 146.828 854.754 153.114 846C159.309 837.138 164.879 827.854 169.784 818.217C171.934 813.715 174.043 809.476 175.665 805.359C176.517 803.331 177.409 801.303 178.119 799.417C178.829 797.531 179.498 795.625 180.147 793.861C181.526 790.332 182.419 787.026 183.331 784.187C183.757 782.747 184.203 781.409 184.548 780.131C184.893 778.853 185.156 777.758 185.42 776.724C185.947 774.696 186.353 773.175 186.657 772.019C186.775 771.486 186.938 770.963 187.144 770.457V770.457Z" fill="#2996CE"/>
<path d="M207.93 779.421C207.868 780.018 207.752 780.609 207.585 781.186C207.302 782.423 206.916 784.086 206.409 786.195C206.146 787.29 205.841 788.507 205.517 789.825C205.192 791.143 204.726 792.542 204.26 794.063C203.306 797.085 202.394 800.614 200.913 804.325L198.743 810.227C197.993 812.255 196.999 814.283 196.087 816.513C194.322 820.874 192.031 825.355 189.658 830.081C184.266 840.236 178.096 849.959 171.203 859.162C164.202 868.268 156.521 876.83 148.226 884.776C144.332 888.365 140.641 891.813 136.95 894.733C135.125 896.214 133.421 897.735 131.657 899.012L126.607 902.764C123.464 905.218 120.361 907.124 117.725 908.848C115.088 910.572 112.756 912.052 110.83 913.168L106.368 915.764C105.861 916.084 105.333 916.369 104.786 916.615C105.253 916.234 105.748 915.888 106.267 915.581L110.606 912.823C112.513 911.647 114.825 910.207 117.4 908.362C119.976 906.516 123.058 904.589 126.182 902.115L131.15 898.404C132.894 897.106 134.577 895.565 136.382 894.084C140.053 891.144 143.683 887.696 147.557 884.107C155.76 876.134 163.378 867.581 170.351 858.513C177.205 849.362 183.36 839.709 188.766 829.635C191.159 824.93 193.471 820.488 195.276 816.148C196.188 813.999 197.304 811.971 197.952 809.922C198.601 807.874 199.473 805.866 200.183 804.082C201.704 800.37 202.657 796.903 203.671 793.942C204.158 792.421 204.665 791.021 205.03 789.723C205.395 788.426 205.699 787.229 205.983 786.134C206.571 784.106 207.018 782.402 207.362 781.186C207.516 780.587 207.706 779.997 207.93 779.421V779.421Z" fill="#2996CE"/>
<path d="M227.135 795.219C227.033 795.812 226.884 796.395 226.689 796.963C226.324 798.201 225.817 799.843 225.188 801.952C224.864 803.027 224.478 804.224 224.093 805.522C223.708 806.82 223.12 808.219 222.572 809.74C221.436 812.721 220.281 816.189 218.516 819.88L216.022 825.7C215.15 827.728 214.095 829.756 213.061 831.906C211.033 836.205 208.559 840.626 206.003 845.311C200.234 855.323 193.79 864.931 186.717 874.068C179.473 883.111 171.613 891.642 163.192 899.601C159.136 903.19 155.526 906.638 151.775 909.578C149.929 911.059 148.205 912.559 146.421 913.878L141.33 917.65C138.126 920.104 135.023 922.03 132.367 923.734C131.028 924.606 129.791 925.458 128.615 926.167L125.39 928.074L120.888 930.67C120.374 930.989 119.838 931.273 119.286 931.521C119.758 931.137 120.26 930.791 120.787 930.487L125.167 927.729L128.351 925.701C129.507 924.971 130.724 924.099 132.042 923.206C134.658 921.361 137.721 919.414 140.884 916.92C142.507 915.703 144.19 914.446 145.934 913.107C147.678 911.769 149.382 910.268 151.227 908.767C154.918 905.826 158.609 902.359 162.523 898.789C170.864 890.816 178.668 882.3 185.886 873.297C192.986 864.213 199.477 854.667 205.314 844.723C207.889 840.058 210.424 835.698 212.452 831.419C213.487 829.391 214.48 827.363 215.454 825.335C216.427 823.307 217.178 821.381 217.989 819.555C219.692 815.905 220.889 812.457 222.045 809.415C222.633 807.935 223.181 806.556 223.647 805.258C224.113 803.96 224.478 802.784 224.844 801.709C225.553 799.681 226.121 798.018 226.527 796.801C226.693 796.26 226.896 795.732 227.135 795.219V795.219Z" fill="#2996CE"/>
<path d="M250.194 878.631C249.484 878.453 248.802 878.18 248.166 877.82C246.949 877.252 245.185 876.36 243.035 875.244C238.736 873.013 232.895 869.769 226.507 865.956C220.119 862.143 214.562 858.473 210.567 855.715C208.539 854.336 206.977 853.2 205.882 852.368C205.289 851.989 204.745 851.54 204.26 851.03C204.923 851.285 205.551 851.626 206.126 852.044L210.972 855.086C215.028 857.682 220.727 861.17 227.054 865.043C233.382 868.917 239.222 872.202 243.4 874.595L248.369 877.455C249.031 877.756 249.646 878.152 250.194 878.631V878.631Z" fill="#2996CE"/>
<path d="M253.905 859.608C251.86 858.458 249.895 857.171 248.024 855.755C244.434 853.301 239.445 849.975 233.828 846.528C228.21 843.08 222.917 840.2 219.105 838.091C216.994 837.047 214.961 835.854 213.021 834.522C213.645 834.665 214.246 834.897 214.805 835.212C215.921 835.698 217.502 836.449 219.449 837.422C223.343 839.45 228.677 842.188 234.375 845.635C240.074 849.083 245.002 852.531 248.571 855.147C250.315 856.465 251.715 857.54 252.627 858.331C253.54 859.122 253.966 859.568 253.905 859.608Z" fill="#2996CE"/>
<path d="M199.737 935.314C199.432 935.314 198.743 919.211 198.195 899.317C197.648 879.422 197.425 863.279 197.709 863.279C197.992 863.279 198.682 879.381 199.25 899.276C199.818 919.171 200.02 935.314 199.737 935.314Z" fill="#2996CE"/>
<path d="M156.398 945.393C155.864 938.694 155.688 931.972 155.871 925.255C155.688 918.537 155.864 911.815 156.398 905.117C156.921 911.816 157.097 918.537 156.926 925.255C157.096 931.972 156.92 938.694 156.398 945.393V945.393Z" fill="#2996CE"/>
<path d="M177.693 943.02C177.409 943.02 177.246 929.838 177.368 913.594C177.49 897.349 177.794 884.147 178.098 884.147C178.402 884.147 178.524 897.329 178.423 913.594C178.321 929.858 177.976 943.02 177.693 943.02Z" fill="#2996CE"/>
<path d="M132.752 871.614C132.59 871.857 121.111 864.455 107.138 855.066C93.1654 845.676 81.9303 837.868 82.0926 837.564C82.2548 837.26 93.7333 844.723 107.726 854.112C121.72 863.502 132.914 871.371 132.752 871.614Z" fill="#2996CE"/>
<path d="M117.441 884.208C116.832 884.115 116.243 883.923 115.697 883.64C114.622 883.214 113.06 882.525 111.174 881.612C106.3 879.231 101.561 876.584 96.9781 873.683C91.5837 870.276 86.8381 866.889 83.5528 864.374C81.689 863.102 79.9446 861.663 78.3408 860.075C80.3093 861.174 82.1998 862.407 83.9989 863.766C87.4263 866.139 92.1109 869.404 97.546 872.79C102.981 876.177 107.929 878.976 111.6 880.902C113.61 881.889 115.56 882.993 117.441 884.208V884.208Z" fill="#2996CE"/>
<path d="M170.209 818.501C169.217 818.979 168.186 819.373 167.127 819.677C165.904 820.128 164.659 820.514 163.395 820.833C161.935 821.239 160.272 821.705 158.406 822.09C154.031 823.035 149.601 823.712 145.143 824.118C139.682 824.604 134.197 824.773 128.716 824.625C123.237 824.428 117.773 823.92 112.351 823.104C107.927 822.422 103.546 821.488 99.2294 820.306C97.3839 819.839 95.7412 819.312 94.3013 818.846C92.8614 818.379 91.6041 817.953 90.6306 817.548C89.5743 817.204 88.5497 816.77 87.5684 816.25C88.6528 816.467 89.7177 816.772 90.7523 817.162C91.7663 817.507 93.0034 817.892 94.4636 818.278C95.9237 818.663 97.5664 819.17 99.4119 819.596C103.103 820.549 107.524 821.36 112.492 822.151C117.873 822.899 123.288 823.373 128.716 823.571C134.128 823.71 139.544 823.568 144.94 823.145C149.384 822.784 153.805 822.181 158.183 821.34C160.069 821.015 161.732 820.59 163.192 820.245C164.653 819.9 165.93 819.576 166.944 819.271C168.005 818.908 169.098 818.65 170.209 818.501V818.501Z" fill="#2996CE"/>
<path d="M179.924 795.747C178.969 796.286 177.972 796.747 176.943 797.126C175.969 797.572 174.753 798.018 173.333 798.525C171.913 799.032 170.291 799.62 168.486 800.147C164.229 801.453 159.902 802.523 155.527 803.352C150.162 804.332 144.745 805.009 139.303 805.38C133.859 805.703 128.401 805.703 122.957 805.38C118.516 805.094 114.099 804.511 109.735 803.636C107.849 803.311 106.186 802.865 104.726 802.48C103.477 802.173 102.245 801.801 101.035 801.364C99.9774 801.055 98.9465 800.662 97.9521 800.188C99.0433 800.347 100.116 800.612 101.156 800.979C102.15 801.283 103.407 801.587 104.868 801.891C106.328 802.196 107.991 802.622 109.857 802.905C114.211 803.657 118.606 804.158 123.018 804.406C128.425 804.651 133.841 804.603 139.242 804.264C144.64 803.858 150.014 803.181 155.345 802.236C160.232 801.283 164.633 800.33 168.243 799.275C170.068 798.789 171.69 798.261 173.13 797.795C174.57 797.328 175.787 796.963 176.781 796.578C177.8 796.204 178.853 795.926 179.924 795.747Z" fill="#2996CE"/>
<path d="M185.926 775.71C185.08 776.183 184.181 776.558 183.249 776.825C181.505 777.495 178.929 778.367 175.746 779.34C167.409 781.908 158.886 783.827 150.254 785.079C141.614 786.341 132.88 786.837 124.153 786.56C120.807 786.418 118.069 786.215 116.244 785.992C115.272 785.937 114.307 785.787 113.364 785.546C114.336 785.458 115.313 785.458 116.285 785.546C118.13 785.647 120.827 785.728 124.173 785.769C132.837 785.842 141.494 785.266 150.071 784.045C158.659 782.772 167.16 780.963 175.522 778.63C178.727 777.738 181.323 776.988 183.107 776.44C184.025 776.118 184.968 775.874 185.926 775.71V775.71Z" fill="#2996CE"/>
<path d="M221.457 862.204C217.975 866.789 214.216 871.157 210.202 875.285C206.445 879.653 202.429 883.791 198.176 887.676C201.661 883.086 205.419 878.712 209.431 874.575C213.184 870.21 217.2 866.079 221.457 862.204V862.204Z" fill="#2996CE"/>
<path d="M238.329 872.182C238.11 872.792 237.803 873.366 237.417 873.885C236.768 874.96 235.754 876.441 234.436 878.246C227.515 887.618 218.671 895.404 208.497 901.081C206.469 902.156 204.948 902.967 203.813 903.474C203.246 903.787 202.639 904.019 202.008 904.164C202.008 904.022 204.36 902.744 208.092 900.432C212.986 897.439 217.626 894.047 221.963 890.292C226.252 886.472 230.213 882.3 233.807 877.82C236.626 874.332 238.187 872.04 238.329 872.182Z" fill="#2996CE"/>
<path d="M243.46 881.186C243.085 885.174 241.879 889.038 239.919 892.531C237.96 896.024 235.29 899.068 232.083 901.466C234.631 898.489 236.95 895.323 239.019 891.996C240.763 888.507 242.247 884.894 243.46 881.186V881.186Z" fill="#2996CE"/>
<path d="M260.476 899.824C259.862 903.089 258.368 906.126 256.156 908.605C254.212 911.302 251.559 913.408 248.49 914.689C250.916 912.585 253.205 910.329 255.345 907.936C257.211 905.333 258.924 902.625 260.476 899.824V899.824Z" fill="#2996CE"/>
<path d="M287.975 916.656C288.071 920.159 287.155 923.616 285.339 926.613C283.817 929.771 281.398 932.41 278.383 934.198C280.65 931.682 282.687 928.967 284.467 926.086C285.911 923.052 287.085 919.896 287.975 916.656Z" fill="#2996CE"/>
<path d="M319.47 931.785C320.222 935.077 319.873 938.525 318.476 941.6C317.402 944.793 315.325 947.553 312.555 949.469C316.785 944.521 319.221 938.29 319.47 931.785V931.785Z" fill="#2996CE"/>
<path d="M348.551 957.723C348.247 957.622 349.464 953.667 349.748 948.719C350.032 943.77 349.322 939.694 349.626 939.633C351.567 945.582 351.182 952.045 348.551 957.723V957.723Z" fill="#2996CE"/>
<path d="M372.38 959.467C372.096 959.345 373.556 955.817 373.942 951.213C374.327 946.61 373.536 942.898 373.942 942.837C374.945 945.545 375.333 948.443 375.077 951.319C374.821 954.196 373.927 956.979 372.461 959.467H372.38Z" fill="#2996CE"/>
<path d="M405.721 959.244C405.416 959.244 405.903 955.776 405.356 951.619C404.808 947.461 403.51 944.277 403.794 944.156C405.334 946.311 406.24 948.854 406.41 951.497C406.918 954.093 406.679 956.779 405.721 959.244V959.244Z" fill="#2996CE"/>
<path d="M428.76 957.216C428.435 957.216 428.435 953.951 427.34 950.159C426.245 946.366 424.602 943.547 424.866 943.385C426.489 945.264 427.68 947.477 428.353 949.867C429.026 952.257 429.165 954.766 428.76 957.216Z" fill="#2996CE"/>
<path d="M455.792 951.274C455.467 951.274 455.629 948.09 454.433 944.46C453.236 940.83 451.31 938.376 451.573 938.133C453.371 939.758 454.707 941.829 455.448 944.137C456.188 946.444 456.307 948.906 455.792 951.274V951.274Z" fill="#2996CE"/>
<path d="M489.072 944.5C488.748 944.5 488.707 940.951 487.226 936.916C485.746 932.88 483.515 930.122 483.759 929.919C485.763 931.734 487.295 934.011 488.221 936.552C489.146 939.093 489.439 941.821 489.072 944.5V944.5Z" fill="#2996CE"/>
<path d="M517.14 933.549C516.836 933.549 515.72 929.96 513.327 925.944C510.934 921.929 508.277 919.171 508.5 918.948C513.142 922.53 516.234 927.756 517.14 933.549V933.549Z" fill="#2996CE"/>
<path d="M548.513 917.102C548.209 917.102 547.256 913.29 544.701 909.193C542.145 905.096 539.144 902.501 539.347 902.257C541.877 903.9 544.012 906.083 545.597 908.65C547.182 911.217 548.178 914.104 548.513 917.102V917.102Z" fill="#2996CE"/>
<path d="M579.156 895.139C577.82 892.774 576.322 890.504 574.674 888.345C572.778 886.404 570.744 884.601 568.59 882.951C571.347 883.723 573.775 885.375 575.505 887.656C577.493 889.694 578.772 892.318 579.156 895.139V895.139Z" fill="#2996CE"/>
<path d="M605.397 872.73C605.134 872.912 602.7 869.647 599.009 866.321C595.318 862.995 591.871 860.825 592.033 860.541C594.93 861.619 597.555 863.322 599.719 865.53C602.113 867.488 604.051 869.945 605.397 872.73V872.73Z" fill="#2996CE"/>
<path d="M628.903 843.506C628.639 843.668 626.611 840.383 623.042 837.422C619.472 834.461 615.923 832.96 616.045 832.656C618.869 833.381 621.493 834.735 623.72 836.618C625.946 838.5 627.718 840.862 628.903 843.526V843.506Z" fill="#2996CE"/>
<path d="M649.851 808.726C647.483 806.833 645.012 805.072 642.449 803.453C639.716 802.155 636.913 801.011 634.053 800.026C637.198 800.007 640.285 800.879 642.956 802.54C645.8 803.898 648.193 806.045 649.851 808.726V808.726Z" fill="#2996CE"/>
<path d="M662.588 771.147C657.111 767.972 650.816 766.49 644.498 766.888C647.625 765.982 650.933 765.898 654.102 766.644C657.271 767.39 660.194 768.941 662.588 771.147V771.147Z" fill="#2996CE"/>
<path d="M668.246 730.79C668.145 731.094 664.839 729.938 660.6 729.492C656.362 729.046 652.894 729.492 652.854 729.086C658.011 727.631 663.532 728.242 668.246 730.79V730.79Z" fill="#2996CE"/>
<path d="M666.157 690.372C664.247 690.614 662.321 690.696 660.397 690.615C658.495 690.861 656.576 690.956 654.658 690.899C658.292 689.297 662.392 689.109 666.157 690.372V690.372Z" fill="#2996CE"/>
<path d="M657.883 662.608C655.883 662.192 653.841 662.008 651.799 662.061C649.818 662.447 647.886 663.052 646.039 663.866C646.039 663.764 646.404 663.176 647.378 662.527C648.672 661.691 650.145 661.17 651.677 661.006C653.208 660.834 654.758 661.029 656.199 661.574C657.376 662 657.944 662.487 657.883 662.608Z" fill="#2996CE"/>
<g opacity="0.3">
<path opacity="0.3" d="M520.344 799.032C530.18 817.71 553.117 827.302 574.086 824.747C595.056 822.192 613.734 809.152 626.814 792.522C636.447 780.232 643.586 764.313 639.611 749.224C629.208 770.85 611.01 787.74 588.67 796.505C566.329 805.269 541.501 805.259 519.168 796.477" fill="black"/>
</g>
<path d="M643.079 638.313C638.367 631.051 636.64 622.25 638.257 613.746C639.874 605.241 644.71 597.689 651.759 592.663C657.356 588.607 664.109 586.437 669.402 582.056C672.639 579.217 675.275 575.76 677.156 571.887C679.037 568.014 680.124 563.804 680.354 559.505C680.744 550.879 678.833 542.305 674.817 534.662L680.455 531.884L680.942 532.492C684.685 537.408 687.292 543.092 688.575 549.136C689.858 555.18 689.785 561.433 688.361 567.445C686.938 573.457 684.199 579.079 680.342 583.906C676.485 588.733 671.606 592.645 666.056 595.36C661.834 597.298 657.864 599.742 654.233 602.64C647.196 608.724 650.075 615.64 650.075 615.64" fill="#2996CE"/>
<g opacity="0.7">
<path opacity="0.7" d="M643.079 638.313C638.367 631.051 636.64 622.25 638.257 613.746C639.874 605.241 644.71 597.689 651.759 592.663C657.356 588.607 664.109 586.437 669.402 582.056C672.639 579.217 675.275 575.76 677.156 571.887C679.037 568.014 680.124 563.804 680.354 559.505C680.744 550.879 678.833 542.305 674.817 534.662L680.455 531.884L680.942 532.492C684.685 537.408 687.292 543.092 688.575 549.136C689.858 555.18 689.785 561.433 688.361 567.445C686.938 573.457 684.199 579.079 680.342 583.906C676.485 588.733 671.606 592.645 666.056 595.36C661.834 597.298 657.864 599.742 654.233 602.64C647.196 608.724 650.075 615.64 650.075 615.64" fill="white"/>
</g>
<path d="M650.987 616.005C648.691 615.55 646.351 615.346 644.011 615.397C641.69 615.771 639.418 616.403 637.237 617.283C639.08 615.607 641.418 614.575 643.899 614.345C646.379 614.114 648.867 614.697 650.987 616.005V616.005Z" fill="#2996CE"/>
<path d="M656.3 600.531C656.016 600.633 655.124 598.868 653.461 597.205C651.798 595.542 650.054 594.61 650.156 594.326C650.257 594.042 652.366 594.589 654.212 596.455C656.057 598.321 656.564 600.45 656.3 600.531Z" fill="#2996CE"/>
<path d="M676.195 588.769C675.911 588.87 675.181 586.903 673.579 584.977C671.977 583.05 670.253 581.914 670.395 581.651C670.537 581.387 672.666 582.178 674.451 584.328C676.236 586.477 676.479 588.728 676.195 588.769Z" fill="#2996CE"/>
<path d="M689.519 563.541C687.968 563.433 686.428 563.195 684.916 562.831C683.363 562.796 681.816 562.626 680.292 562.324C681.812 561.753 683.449 561.565 685.058 561.777C686.667 561.989 688.2 562.595 689.519 563.541V563.541Z" fill="#2996CE"/>
<path d="M684.997 539.164C684.997 539.468 683.273 539.367 681.387 539.935C679.501 540.503 678.102 541.415 677.899 541.192C677.696 540.969 678.913 539.529 681.083 538.921C683.253 538.312 685.078 538.9 684.997 539.164Z" fill="#2996CE"/>
<path d="M497.285 689.297C504.464 684.633 513.976 686.174 522.128 688.871C530.281 691.568 538.454 695.3 546.991 694.489C556.3 693.617 564.27 687.411 570.415 680.394C578.007 671.718 583.656 661.519 586.984 650.481C590.35 639.246 592.074 626.044 601.747 619.392C611.421 612.74 624.846 616.086 633.161 623.955C641.476 631.823 645.491 643.18 648.128 654.375C654.212 680.171 654.313 707.691 645.958 732.858C637.602 758.026 620.425 780.577 597.103 793.191C573.781 805.806 544.375 807.61 520.648 795.808" fill="#2996CE"/>
<path d="M520.648 795.747C521.021 795.875 521.386 796.024 521.743 796.193L524.906 797.572C526.326 798.119 528.09 798.768 530.179 799.6C532.268 800.431 534.742 800.999 537.561 801.628C544.394 803.104 551.383 803.724 558.368 803.473C562.726 803.298 567.065 802.796 571.348 801.973C576.152 801.096 580.869 799.793 585.442 798.079C595.979 794.142 605.69 788.276 614.078 780.78C623.731 772.237 631.762 762.021 637.785 750.624C644.432 738.034 648.786 724.362 650.642 710.246C652.642 695.089 652.314 679.715 649.669 664.657C648.451 657.017 646.543 649.503 643.97 642.207C641.554 635.108 637.415 628.718 631.924 623.61C626.504 618.822 619.461 616.284 612.232 616.512C608.772 616.661 605.409 617.71 602.477 619.554C599.646 621.423 597.286 623.921 595.582 626.855C592.094 632.614 590.593 639.185 588.89 645.391C587.395 651.512 585.247 657.454 582.481 663.116C579.881 668.397 576.705 673.376 573.011 677.96C569.673 682.261 565.74 686.065 561.329 689.256C557.305 692.197 552.617 694.099 547.681 694.793C543.271 695.195 538.825 694.719 534.6 693.394C526.711 691.061 520.262 688.06 514.564 687.147C510.249 686.189 505.765 686.301 501.503 687.472C500.411 687.814 499.352 688.255 498.34 688.79C497.65 689.175 497.285 689.338 497.285 689.338L498.279 688.709C499.275 688.123 500.328 687.641 501.422 687.269C505.716 685.99 510.263 685.809 514.645 686.742C520.404 687.614 526.934 690.575 534.763 692.826C538.914 694.1 543.277 694.542 547.6 694.124C552.418 693.421 556.987 691.541 560.903 688.648C565.243 685.482 569.108 681.713 572.382 677.453C576.006 672.896 579.127 667.959 581.69 662.73C584.42 657.113 586.534 651.218 587.998 645.147C589.681 638.962 591.161 632.31 594.751 626.348C596.522 623.279 598.988 620.667 601.95 618.723C604.99 616.778 608.486 615.667 612.09 615.498C615.77 615.327 619.446 615.899 622.899 617.181C626.431 618.45 629.697 620.362 632.532 622.819C638.147 628.039 642.383 634.567 644.863 641.822C647.468 649.188 649.395 656.778 650.622 664.495C653.302 679.652 653.623 695.133 651.575 710.388C649.695 724.623 645.286 738.407 638.556 751.09C632.467 762.6 624.338 772.907 614.564 781.51C606.075 789.007 596.26 794.854 585.625 798.748C581.015 800.446 576.264 801.735 571.429 802.601C567.11 803.399 562.738 803.873 558.348 804.021C551.314 804.231 544.282 803.55 537.419 801.993C534.6 801.384 532.167 800.573 530.037 799.965C527.908 799.356 526.184 798.525 524.785 797.937L521.662 796.456C520.992 795.949 520.648 795.747 520.648 795.747Z" fill="#263238"/>
<path d="M607.933 643.18C606.895 642.322 606.063 641.241 605.5 640.016C603.968 637.12 603.2 633.882 603.269 630.607C603.308 627.337 604.166 624.13 605.763 621.278C606.35 620.057 607.219 618.994 608.298 618.175C608.44 618.297 607.467 619.473 606.433 621.623C605.089 624.437 604.37 627.51 604.324 630.628C604.279 633.747 604.908 636.839 606.169 639.692C607.163 641.862 608.096 643.079 607.933 643.18Z" fill="#263238"/>
<path d="M620.243 641.396C619.315 640.439 618.584 639.309 618.093 638.07C616.734 635.134 615.936 631.97 615.741 628.741C615.538 625.515 615.951 622.28 616.958 619.209C617.286 617.915 617.872 616.701 618.681 615.64C617.166 619.812 616.523 624.25 616.792 628.68C617.061 633.11 618.235 637.438 620.243 641.396Z" fill="#263238"/>
<path d="M630.099 644.904C628.817 641.828 628.289 638.491 628.557 635.17C628.468 631.837 629.163 628.531 630.585 625.516C630.889 625.618 629.734 629.836 629.612 635.19C629.49 640.544 630.403 644.904 630.099 644.904Z" fill="#263238"/>
<path d="M799.416 670.254C780.86 681.57 756.179 679.421 736.954 669.26C717.729 659.1 703.168 642.085 691.02 624.239C687.572 619.169 684.084 613.795 678.73 610.732C668.205 604.648 653.664 610.529 647.621 620.872C641.577 631.215 642.713 644.478 647.377 655.551C647.377 655.551 659.748 715.499 724.238 752.773" fill="#2996CE"/>
<path d="M724.238 752.834C724.042 752.768 723.858 752.672 723.691 752.55L722.109 751.617C720.689 750.745 718.681 749.488 716.025 747.906C714.747 747.054 713.206 746.243 711.685 745.108L706.716 741.477C704.952 740.119 702.924 738.841 701.018 737.158L694.934 731.946C684.897 722.956 675.971 712.798 668.346 701.688C663.744 695.001 659.676 687.963 656.178 680.637C652.25 672.668 649.151 664.316 646.931 655.713V655.815C643.845 648.756 642.556 641.043 643.179 633.365C643.572 629.355 644.714 625.455 646.545 621.866C648.93 617.339 652.588 613.609 657.067 611.137C661.547 608.665 666.652 607.558 671.753 607.954C674.724 608.307 677.575 609.333 680.089 610.955C682.493 612.596 684.628 614.6 686.416 616.897C688.221 619.128 689.803 621.481 691.344 623.772C692.885 626.064 694.487 628.315 696.069 630.505C699.273 634.906 702.559 639.104 705.946 643.018C712.3 650.504 719.539 657.191 727.503 662.933C734.46 667.93 742.178 671.772 750.359 674.31C762.171 678.155 774.835 678.549 786.863 675.446C787.867 675.199 788.855 674.894 789.824 674.533C790.736 674.209 791.608 673.945 792.379 673.621C793.92 672.931 795.259 672.404 796.273 671.876L798.605 670.639C798.864 670.488 799.135 670.359 799.416 670.254C799.18 670.437 798.929 670.599 798.666 670.741L796.374 672.059C795.36 672.627 794.042 673.174 792.501 673.904C791.71 674.249 790.858 674.533 789.945 674.878C788.972 675.263 787.977 675.588 786.964 675.851C774.846 679.149 762.032 678.861 750.075 675.02C741.808 672.508 734.006 668.665 726.976 663.643C718.93 657.888 711.616 651.173 705.195 643.647C701.768 639.712 698.462 635.535 695.238 631.114C693.636 628.903 692.054 626.632 690.492 624.34C688.931 622.048 687.369 619.716 685.605 617.546C683.877 615.344 681.826 613.416 679.521 611.827C677.142 610.295 674.443 609.331 671.632 609.008C665.802 608.477 659.978 610.084 655.246 613.531C652.067 615.851 649.434 618.837 647.528 622.28C645.623 625.724 644.492 629.541 644.213 633.466C643.612 640.969 644.866 648.505 647.864 655.409V655.511C650.051 664.055 653.109 672.352 656.99 680.272C660.494 687.568 664.563 694.579 669.158 701.242C676.716 712.324 685.566 722.468 695.522 731.459L701.606 736.712C703.492 738.415 705.499 739.693 707.223 741.072L712.151 744.763C713.652 745.919 715.173 746.791 716.451 747.602L722.393 751.455L723.914 752.469C724.032 752.581 724.141 752.703 724.238 752.834V752.834Z" fill="#263238"/>
<path d="M664.818 644.681C663.282 639.78 661.121 635.098 658.39 630.749C653.644 623.651 647.601 619.919 647.844 619.635C649.258 620.223 650.566 621.038 651.717 622.048C657.579 626.678 661.87 633.002 664.007 640.159C664.537 641.608 664.812 643.138 664.818 644.681V644.681Z" fill="#263238"/>
<path d="M677.352 636.549C676.553 631.403 675.081 626.384 672.971 621.623C670.538 617.02 667.519 612.753 663.987 608.927C665.321 609.735 666.518 610.748 667.536 611.929C670.13 614.663 672.285 617.783 673.925 621.176C675.555 624.566 676.663 628.183 677.21 631.905C677.523 633.433 677.572 635.004 677.352 636.549V636.549Z" fill="#263238"/>
<g opacity="0.3">
<path opacity="0.3" d="M635.432 755.572C640.482 747.845 619.674 746.02 610.508 747.095C597.083 748.637 584.709 755.113 575.79 765.265C566.871 775.417 562.042 788.521 562.241 802.033C562.241 802.033 602.315 806.313 635.432 755.572Z" fill="white"/>
</g>
<g opacity="0.3">
<path opacity="0.3" d="M669.604 721.076C680.147 737.201 695.781 749.337 714.017 755.552C715.931 756.382 718.034 756.677 720.101 756.403C721.121 756.253 722.056 755.751 722.744 754.985C723.433 754.218 723.832 753.235 723.873 752.205C702.194 740.412 683.612 723.657 669.645 703.31C668.58 709.552 669.473 715.97 672.2 721.684" fill="black"/>
</g>
<path d="M641.703 584.224C659.562 566.364 659.562 537.409 641.703 519.55C623.844 501.691 594.889 501.691 577.029 519.55C559.17 537.409 559.17 566.365 577.029 584.224C594.889 602.083 623.844 602.083 641.703 584.224Z" fill="#F5F5F5"/>
<path d="M655.044 553.806C655.044 575.891 643.444 594.366 630.525 594.366C617.607 594.366 607.122 576.459 607.122 554.394C607.122 532.33 617.607 514.422 630.525 514.422C643.444 514.422 655.044 531.742 655.044 553.806Z" fill="#263238"/>
<path d="M619.148 572.768C618.765 572.316 618.451 571.81 618.215 571.267C617.481 569.834 616.851 568.35 616.329 566.826C612.797 556.647 613.092 545.531 617.16 535.554C617.761 534.059 618.479 532.615 619.31 531.235C619.567 530.701 619.902 530.209 620.304 529.774C620.466 529.774 619.249 532.046 617.87 535.858C616.091 540.782 615.106 545.957 614.95 551.19C614.815 556.416 615.499 561.63 616.978 566.643C618.215 570.436 619.33 572.687 619.148 572.768Z" fill="white"/>
<path d="M636.365 536.589C640.689 536.589 644.193 533.084 644.193 528.76C644.193 524.437 640.689 520.932 636.365 520.932C632.042 520.932 628.537 524.437 628.537 528.76C628.537 533.084 632.042 536.589 636.365 536.589Z" fill="white"/>
<path d="M638.981 495.44C638.109 496.637 635.899 496.617 633.12 496.17C630.342 495.724 626.854 494.913 623.082 494.305C619.31 493.696 615.903 493.331 613.165 492.946C610.427 492.561 608.318 492.013 607.77 490.634C607.223 489.255 608.541 487.288 611.623 485.645C613.436 484.718 615.389 484.095 617.403 483.8C619.863 483.416 622.366 483.416 624.826 483.8C629.259 484.472 633.386 486.465 636.669 489.519C639.103 492.033 639.813 494.284 638.981 495.44Z" fill="#263238"/>
<path d="M618.255 608.988C614.725 601.735 613.948 593.447 616.068 585.664C618.188 577.881 623.062 571.132 629.783 566.671C636.504 562.21 644.615 560.341 652.611 561.41C660.606 562.479 667.942 566.414 673.255 572.484" fill="#2996CE"/>
<path d="M673.295 572.484C673.295 572.484 672.321 571.572 670.516 570.01C667.938 567.821 665.038 566.043 661.918 564.737C657.308 562.788 652.34 561.834 647.336 561.939C641.185 561.882 635.157 563.664 630.026 567.057C624.895 570.45 620.895 575.299 618.539 580.981C616.503 585.551 615.452 590.499 615.456 595.502C615.456 598.879 615.968 602.236 616.977 605.459C617.707 607.731 618.275 608.948 618.174 608.988C617.985 608.731 617.828 608.452 617.707 608.157C617.282 607.329 616.909 606.476 616.592 605.601C615.397 602.352 614.766 598.923 614.726 595.461C614.59 590.332 615.588 585.236 617.646 580.535C620.026 574.667 624.122 569.654 629.397 566.151C634.673 562.648 640.883 560.82 647.215 560.904C652.343 560.844 657.423 561.903 662.1 564.007C665.25 565.391 668.143 567.297 670.658 569.645C671.347 570.275 671.991 570.953 672.585 571.673C672.854 571.913 673.093 572.185 673.295 572.484V572.484Z" fill="#263238"/>
<path d="M527.442 435.817C527.118 435.988 526.769 436.104 526.408 436.162L523.386 436.973C522.068 437.298 520.465 437.764 518.62 438.332L515.679 439.204L512.394 440.319C500.473 444.485 489.037 449.925 478.283 456.543C467.516 463.185 457.216 470.557 447.458 478.608C443.706 481.691 440.684 484.205 438.636 485.99L436.222 488.018C435.675 488.484 435.371 488.707 435.33 488.667C435.55 488.377 435.802 488.111 436.08 487.876L438.352 485.706C440.38 483.84 443.28 481.244 446.971 478.06C456.638 469.846 466.923 462.388 477.736 455.752C488.55 449.04 500.123 443.635 512.212 439.65L515.517 438.575L518.519 437.784C520.384 437.257 521.986 436.851 523.325 436.588L526.408 435.979C526.744 435.884 527.092 435.829 527.442 435.817Z" fill="#263238"/>
<path d="M233.342 188.158C232.979 187.4 232.7 186.604 232.51 185.785C232.267 185.014 232.003 184.041 231.76 182.926C231.517 181.81 231.192 180.492 230.989 179.072C230.433 175.719 230.122 172.331 230.057 168.932C230.006 164.759 230.29 160.588 230.908 156.46C231.584 152.333 232.581 148.264 233.889 144.292C235.01 141.067 236.366 137.929 237.946 134.903C238.574 133.584 239.284 132.469 239.852 131.455C240.42 130.441 240.967 129.63 241.434 128.96C241.866 128.232 242.376 127.552 242.955 126.932C243.117 127.034 241.109 130.015 238.615 135.207C237.174 138.248 235.928 141.377 234.883 144.576C233.642 148.512 232.68 152.531 232.003 156.602C231.407 160.679 231.102 164.792 231.091 168.912C231.109 172.304 231.346 175.691 231.801 179.052C232.531 184.67 233.545 188.117 233.342 188.158Z" fill="#263238"/>
<path d="M712.325 64.0415L272.576 145.862L318.598 393.21L758.347 311.39L712.325 64.0415Z" fill="white"/>
<path d="M758.351 311.379C758.351 311.379 758.026 309.878 757.478 306.958C756.931 304.038 756.099 299.698 755.025 294.04C752.895 282.723 749.752 266.033 745.736 244.617C737.624 201.806 726.146 140.033 711.909 64.1253L712.396 64.4498L272.685 146.361L273.111 145.732C289.335 233.22 304.93 316.895 319.106 393.148L318.518 392.743L634.886 334.113L725.761 317.341L749.975 312.9L756.221 311.764L758.371 311.399L756.343 311.825L750.157 313.002L726.024 317.524L635.291 334.62L318.68 393.696L318.193 393.797V393.31C303.997 317.098 288.422 233.443 272.117 145.894V145.367H272.624L712.234 63.6183H712.639V64.0037L746.061 244.861C749.995 266.256 753.057 282.906 755.146 294.222L757.499 307.08C758.107 309.919 758.351 311.379 758.351 311.379Z" fill="#263238"/>
<path d="M461.714 240.642L448.188 243.157L451.433 260.537L426.407 265.202L423.162 247.822L375.18 256.745L372.057 240.014L402.233 175.787L428.82 170.839L401.726 230.746L420.14 227.319L417.261 211.885L441.597 207.383L444.476 222.796L457.942 220.302L461.714 240.642Z" fill="#263238"/>
<path d="M461.694 211.683C456.117 181.729 469.806 161.348 492.986 157.028C516.166 152.708 536.122 166.844 541.658 196.797C547.195 226.751 533.546 247.132 510.508 251.411C487.47 255.69 467.271 241.636 461.694 211.683ZM515.903 201.543C512.354 182.52 504.972 176.436 496.86 178.038C488.748 179.64 483.921 187.813 487.47 206.876C491.019 225.939 498.3 231.963 506.594 230.421C514.889 228.88 519.452 220.646 515.903 201.583V201.543Z" fill="#263238"/>
<path d="M641.315 207.221L627.829 209.736L631.053 227.116L606.048 231.78L602.803 214.4L554.821 223.323L551.718 206.592L581.894 142.366L608.4 137.417L581.387 197.324L599.802 193.897L596.922 178.464L621.258 173.962L624.117 189.375L637.604 186.88L641.315 207.221Z" fill="#263238"/>
<path d="M470.658 313.833L471.49 318.254L445.653 323.06L439.021 287.449L464.148 282.784L464.96 287.205L444.923 290.937L446.951 301.868L464.818 298.542L465.629 302.882L447.762 306.228L449.912 317.706L470.658 313.833Z" fill="#263238"/>
<path d="M503.512 312.312L493.798 302.801C493.108 302.983 492.358 303.186 491.587 303.328L482.786 304.971L484.814 315.8L479.744 316.753L473.112 281.142L487.004 278.546C496.252 276.822 502.721 280.472 504.161 288.199C504.736 290.652 504.485 293.226 503.447 295.521C502.41 297.817 500.643 299.706 498.422 300.894L509.089 311.278L503.512 312.312ZM499.05 289.152C498.097 284.062 494.163 281.791 487.653 283.068L478.994 284.67L481.975 300.692L490.634 299.089C497.144 297.792 500.004 294.222 499.05 289.132V289.152Z" fill="#263238"/>
<path d="M540.483 305.417L530.769 295.905C530.079 296.088 529.329 296.291 528.558 296.433L519.757 298.055L521.785 308.905L516.715 309.838L510.083 274.246L523.975 271.651C533.222 269.927 539.692 273.679 541.132 281.304C541.721 283.765 541.478 286.353 540.439 288.661C539.401 290.97 537.626 292.868 535.392 294.06L546.06 304.443L540.483 305.417ZM536.021 282.257C535.068 277.167 531.134 274.895 524.624 276.173L515.964 277.775L518.945 293.796L527.605 292.194C534.115 290.917 536.974 287.327 536.021 282.257Z" fill="#263238"/>
<path d="M547.438 285.705C545.512 275.281 552.082 265.992 563.034 263.964C573.985 261.936 583.314 268.183 585.342 278.667C587.37 289.152 580.698 298.359 569.868 300.387C559.039 302.415 549.385 296.088 547.438 285.705ZM580.211 279.621C579.736 276.868 578.452 274.319 576.524 272.299C574.596 270.278 572.11 268.877 569.383 268.273C566.655 267.67 563.81 267.891 561.21 268.91C558.609 269.928 556.37 271.698 554.778 273.993C553.186 276.288 552.312 279.004 552.269 281.797C552.226 284.59 553.014 287.332 554.535 289.676C556.055 292.019 558.238 293.857 560.806 294.955C563.374 296.054 566.211 296.363 568.955 295.845C570.784 295.564 572.535 294.914 574.104 293.934C575.672 292.954 577.025 291.664 578.078 290.144C579.131 288.624 579.864 286.905 580.23 285.092C580.597 283.279 580.591 281.41 580.211 279.6V279.621Z" fill="#263238"/>
<path d="M620.183 290.592L610.428 281.081C609.719 281.263 608.968 281.446 608.197 281.588L599.396 283.231L601.424 294.06L596.334 295.013L589.702 259.401L603.594 256.826C612.862 255.102 619.311 258.732 620.751 266.479C621.333 268.932 621.085 271.509 620.047 273.806C619.008 276.103 617.238 277.991 615.012 279.175L625.679 289.558L620.183 290.592ZM615.701 267.412C614.768 262.342 610.814 260.071 604.304 261.328L595.664 262.93L598.646 278.951L607.285 277.349C613.795 276.092 616.654 272.502 615.701 267.412V267.412Z" fill="#263238"/>
<path d="M703.047 90.8138C703.118 92.6275 702.649 94.4214 701.7 95.9684C700.751 97.5153 699.363 98.7456 697.714 99.5033C696.065 100.261 694.227 100.512 692.435 100.224C690.643 99.9369 688.977 99.1238 687.647 97.8882C686.318 96.6526 685.385 95.0501 684.967 93.2839C684.549 91.5176 684.665 89.667 685.3 87.9667C685.935 86.2663 687.06 84.7928 688.534 83.7327C690.007 82.6727 691.762 82.0739 693.576 82.0123C695.997 81.93 698.353 82.8097 700.127 84.459C701.902 86.1082 702.952 88.393 703.047 90.8138V90.8138Z" fill="#E0E0E0"/>
<path d="M703.047 90.8139C702.946 90.8139 702.925 90.0027 702.479 88.6439C701.832 86.7461 700.587 85.1094 698.93 83.9795C697.592 83.0735 696.03 82.5551 694.416 82.4816C692.802 82.4082 691.199 82.7825 689.784 83.5633C688.37 84.3441 687.198 85.5008 686.4 86.9057C685.602 88.3105 685.208 89.9088 685.261 91.5237C685.341 93.1321 685.863 94.6875 686.769 96.0188C687.675 97.3502 688.93 98.406 690.397 99.0704C691.865 99.7347 693.486 99.9819 695.085 99.7846C696.683 99.5874 698.196 98.9535 699.457 97.9524C701.025 96.7019 702.137 94.97 702.621 93.0244C702.966 91.6251 702.925 90.8139 703.027 90.8139C703.128 90.8139 703.027 91.0167 703.128 91.402C703.167 91.9718 703.133 92.5443 703.027 93.1055C702.666 95.2208 701.566 97.1395 699.924 98.5203C698.703 99.5602 697.24 100.275 695.669 100.597C694.098 100.92 692.471 100.84 690.94 100.366C689.042 99.7766 687.373 98.6136 686.163 97.037C684.953 95.4603 684.262 93.5474 684.184 91.5616C684.106 89.5758 684.646 87.6146 685.729 85.9481C686.811 84.2816 688.384 82.9916 690.23 82.2557C691.718 81.6569 693.334 81.4451 694.927 81.6402C696.519 81.8352 698.036 82.4308 699.336 83.3711C701.077 84.6283 702.32 86.4595 702.844 88.5425C702.998 89.0901 703.074 89.6569 703.067 90.2257C703.088 90.6111 703.088 90.8139 703.047 90.8139Z" fill="#263238"/>
<path d="M697.937 84.4459C698.391 86.8926 697.944 89.4211 696.679 91.5641C695.735 93.8626 693.992 95.7425 691.771 96.8572C693.218 95.0215 694.539 93.0906 695.726 91.0774C696.607 88.9175 697.345 86.7022 697.937 84.4459V84.4459Z" fill="#263238"/>
<path d="M699.661 94.16C699.397 94.3223 698.18 91.909 695.422 90.4894C693.677 89.7832 691.84 89.3324 689.967 89.1509C689.967 89.0089 690.575 88.725 691.691 88.6439C693.153 88.5676 694.609 88.8826 695.909 89.5565C697.207 90.2272 698.3 91.2362 699.072 92.4768C699.661 93.43 699.863 94.1195 699.661 94.16Z" fill="#263238"/>
<path d="M292.061 211.747L268.991 230.144L277.311 240.577L300.381 222.18L292.061 211.747Z" fill="#E0E0E0"/>
<path d="M300.367 222.208C300.367 222.208 299.434 221.194 297.934 219.409L291.85 212.007H292.397C286.475 216.834 278.384 223.364 269.42 230.502C269.42 231.172 269.42 229.61 269.42 229.772L269.562 229.955L269.846 230.3L270.393 230.969L271.468 232.328L273.496 234.984L277.552 240.054H276.842C283.494 234.802 289.274 230.34 293.431 227.136L298.339 223.404C298.937 222.916 299.567 222.469 300.225 222.066C299.748 222.565 299.233 223.026 298.684 223.445L294.02 227.339C289.964 230.665 284.245 235.451 277.471 240.845L277.086 241.149L276.761 240.764L272.705 235.714C271.995 234.842 271.286 233.97 270.576 233.058L269.501 231.719L268.953 231.03L268.67 230.685L268.548 230.523C268.548 230.685 268.71 229.123 268.548 229.793C277.512 222.634 285.684 216.205 291.708 211.541L292.012 211.318L292.255 211.601C294.831 214.927 296.879 217.685 298.339 219.47C299.076 220.336 299.754 221.251 300.367 222.208V222.208Z" fill="#263238"/>
<path d="M263.803 243.36C264.805 244.63 266.048 245.689 267.46 246.479C268.872 247.268 270.425 247.771 272.032 247.959C273.638 248.147 275.266 248.017 276.823 247.576C278.379 247.135 279.833 246.391 281.102 245.388L265.668 226.122C263.146 228.168 261.535 231.128 261.186 234.357C260.836 237.586 261.777 240.822 263.803 243.36V243.36Z" fill="#E0E0E0"/>
<path d="M263.803 243.36C263.43 243.055 263.108 242.692 262.85 242.285C262.086 241.16 261.524 239.911 261.187 238.594C260.645 236.561 260.645 234.422 261.187 232.389C261.855 229.749 263.356 227.396 265.466 225.676L265.851 225.372L266.155 225.757L273.862 235.349C276.579 238.756 279.155 242.022 281.507 245.003L281.812 245.388L281.426 245.692C279.282 247.363 276.661 248.308 273.943 248.389C271.827 248.443 269.733 247.954 267.859 246.97C266.657 246.344 265.572 245.514 264.655 244.516C264.312 244.177 264.025 243.787 263.803 243.36C265.089 244.588 266.543 245.626 268.123 246.443C270.169 247.388 272.437 247.746 274.676 247.478C276.914 247.209 279.033 246.324 280.798 244.922V245.611L273.091 236.019L265.446 226.365H266.115C264.351 227.776 263.014 229.65 262.255 231.778C261.495 233.906 261.343 236.203 261.815 238.412C262.247 240.145 262.916 241.81 263.803 243.36V243.36Z" fill="#263238"/>
<path d="M266.642 236.972C265.694 238.071 265.073 239.412 264.847 240.846C264.621 242.279 264.8 243.747 265.364 245.084" fill="#E0E0E0"/>
<path d="M265.364 245.165C264.832 244.587 264.457 243.884 264.272 243.121C264.088 242.358 264.1 241.561 264.309 240.805C264.694 238.168 266.479 236.749 266.641 236.972C266.804 237.195 265.668 238.696 265.343 241.028C265.019 243.36 265.668 245.023 265.364 245.165Z" fill="#263238"/>
<path d="M281.142 238.29C279.506 236.616 278.001 234.819 276.639 232.916C275.02 231.239 273.528 229.442 272.178 227.542C274.272 228.686 276.076 230.296 277.451 232.247C279.111 233.965 280.371 236.028 281.142 238.29Z" fill="#263238"/>
<path d="M283.921 236.14C282.295 234.463 280.797 232.667 279.439 230.766C277.815 229.086 276.323 227.283 274.978 225.372C278.969 227.986 282.084 231.737 283.921 236.14V236.14Z" fill="#263238"/>
<path d="M286.557 233.97C284.925 232.299 283.426 230.502 282.075 228.596C280.445 226.922 278.947 225.126 277.593 223.222C279.691 224.369 281.501 225.978 282.886 227.927C284.534 229.651 285.786 231.713 286.557 233.97V233.97Z" fill="#263238"/>
<path d="M289.254 231.821C287.628 230.144 286.13 228.347 284.772 226.446C283.155 224.76 281.663 222.957 280.311 221.052C282.393 222.214 284.193 223.82 285.583 225.757C287.247 227.477 288.502 229.549 289.254 231.821V231.821Z" fill="#263238"/>
<path d="M292.032 229.651C290.4 227.979 288.902 226.182 287.55 224.276C285.924 222.606 284.432 220.809 283.089 218.902C285.174 220.059 286.976 221.666 288.362 223.607C290.009 225.331 291.262 227.394 292.032 229.651V229.651Z" fill="#263238"/>
<path d="M294.669 227.501C293.043 225.824 291.545 224.028 290.187 222.127C288.57 220.44 287.079 218.637 285.726 216.732C287.808 217.894 289.608 219.501 290.998 221.437C292.662 223.157 293.917 225.23 294.669 227.501V227.501Z" fill="#263238"/>
<path d="M297.386 225.331C295.754 223.659 294.255 221.862 292.904 219.957C291.277 218.286 289.785 216.489 288.442 214.583C290.528 215.74 292.329 217.347 293.715 219.288C295.363 221.012 296.616 223.074 297.386 225.331V225.331Z" fill="#263238"/>
<path d="M313.326 166.296C313.224 166.296 313.204 165.465 312.758 164.106C312.115 162.173 310.844 160.51 309.148 159.381C307.795 158.458 306.213 157.928 304.577 157.849C302.941 157.771 301.315 158.148 299.88 158.938C298.445 159.728 297.257 160.9 296.448 162.324C295.639 163.748 295.241 165.369 295.297 167.006C295.368 168.644 295.893 170.23 296.812 171.588C297.732 172.945 299.01 174.021 300.504 174.696C301.998 175.371 303.651 175.617 305.277 175.409C306.903 175.201 308.44 174.545 309.716 173.516C311.307 172.254 312.434 170.499 312.92 168.527C313.265 167.127 313.224 166.296 313.326 166.296C313.427 166.296 313.326 166.499 313.427 166.884C313.465 167.461 313.431 168.04 313.326 168.608C312.996 170.76 311.919 172.727 310.284 174.165C309.052 175.22 307.57 175.943 305.981 176.266C304.391 176.589 302.745 176.501 301.198 176.01C299.304 175.397 297.644 174.217 296.442 172.631C295.239 171.045 294.551 169.128 294.472 167.139C294.392 165.149 294.924 163.184 295.997 161.506C297.069 159.829 298.629 158.521 300.468 157.758C301.978 157.157 303.615 156.946 305.227 157.145C306.84 157.343 308.377 157.945 309.696 158.894C311.454 160.169 312.71 162.021 313.245 164.126C313.392 164.682 313.474 165.254 313.488 165.83C313.42 166.141 313.366 166.296 313.326 166.296Z" fill="#263238"/>
<path d="M253.094 188.766C252.75 188.003 252.478 187.208 252.283 186.393C251.972 185.451 251.721 184.489 251.533 183.514C251.289 182.398 250.945 181.121 250.762 179.681C250.199 176.328 249.881 172.939 249.809 169.541C249.65 161.166 250.954 152.827 253.662 144.901C254.778 141.667 256.134 138.522 257.718 135.491C258.326 134.172 259.036 133.057 259.604 132.063C260.089 131.206 260.617 130.373 261.186 129.569C261.624 128.844 262.134 128.165 262.707 127.541C262.889 127.663 260.861 130.623 258.387 135.835C256.924 138.869 255.67 141.999 254.636 145.205C253.394 149.133 252.439 153.145 251.776 157.211C251.162 161.292 250.851 165.413 250.843 169.541C250.86 172.933 251.097 176.32 251.553 179.681C252.283 185.278 253.297 188.705 253.094 188.766Z" fill="#263238"/>
<path d="M787.858 277.836C788.232 278.589 788.511 279.386 788.689 280.209C788.991 281.148 789.242 282.102 789.439 283.068C789.683 284.204 790.028 285.482 790.21 286.921C790.774 290.274 791.092 293.663 791.163 297.061C791.318 305.436 790.015 313.774 787.31 321.702C786.198 324.93 784.842 328.069 783.254 331.091C782.625 332.409 781.936 333.525 781.348 334.539C780.873 335.403 780.345 336.236 779.766 337.033C779.344 337.764 778.84 338.444 778.265 339.061C778.083 338.96 780.111 335.979 782.585 330.787C784.024 327.743 785.277 324.614 786.337 321.418C787.58 317.484 788.536 313.464 789.196 309.392C789.809 305.317 790.121 301.202 790.129 297.082C790.1 293.69 789.863 290.304 789.419 286.942C788.689 281.405 787.675 277.958 787.858 277.836Z" fill="#263238"/>
<path d="M801.061 281.405C801.43 282.161 801.709 282.957 801.892 283.778C802.194 284.717 802.445 285.671 802.642 286.638C802.886 287.773 803.21 289.051 803.413 290.491C803.977 293.843 804.295 297.232 804.366 300.631C804.408 304.804 804.123 308.974 803.514 313.103C802.842 317.233 801.839 321.302 800.513 325.271C799.397 328.504 798.042 331.65 796.457 334.681C795.828 335.979 795.139 337.094 794.551 338.108C794.065 339.002 793.53 339.869 792.949 340.704C792.526 341.434 792.023 342.114 791.448 342.732C791.265 342.631 793.293 339.649 795.768 334.458C797.214 331.417 798.467 328.287 799.519 325.088C800.763 321.154 801.718 317.135 802.379 313.062C802.993 308.988 803.305 304.873 803.312 300.752C803.285 297.361 803.048 293.975 802.602 290.612C801.872 284.893 800.858 281.446 801.061 281.405Z" fill="#263238"/>
<path d="M360.031 440.502C372.872 423.349 378.818 402.005 376.693 380.683C374.568 359.362 364.528 339.611 348.554 325.329C332.58 311.048 311.833 303.273 290.407 303.54C268.981 303.806 248.434 312.095 232.82 326.769C217.207 341.444 207.661 361.438 206.067 382.806C204.474 404.174 210.948 425.364 224.213 442.192C237.477 459.02 256.568 470.264 277.717 473.706C298.866 477.148 320.537 472.536 338.453 460.782L367.899 473.822L360.031 440.502Z" fill="#FAFAFA"/>
<path d="M265.505 384.347C265.756 381.118 266.995 378.044 269.054 375.545C270.968 373.015 273.628 371.149 276.659 370.211C279.251 369.463 282.017 369.596 284.525 370.591C287.032 371.586 289.138 373.386 290.511 375.707C291.679 373.382 293.556 371.489 295.871 370.3C298.185 369.112 300.818 368.69 303.388 369.096C306.481 369.692 309.314 371.229 311.5 373.497C313.829 375.75 315.42 378.656 316.063 381.832C316.801 385.9 316.203 390.097 314.36 393.797C312.2 397.568 309.168 400.767 305.518 403.126C299.616 407.182 291.849 412.252 291.849 412.252C291.849 412.252 284.731 407.567 278.403 404.241C274.496 402.333 271.103 399.516 268.507 396.028C266.281 392.556 265.228 388.461 265.505 384.347V384.347Z" fill="#FF725E"/>
<path d="M291.383 303.855C290.884 303.811 290.382 303.811 289.882 303.855L285.522 303.997C284.549 303.997 283.494 303.997 282.298 304.139L278.444 304.666L273.942 305.315L268.913 306.573C260.271 308.75 252.048 312.341 244.577 317.199C233.495 324.247 224.173 333.737 217.325 344.944C210.478 356.15 206.286 368.775 205.071 381.852C204.736 385.777 204.654 389.72 204.828 393.655C204.97 395.683 204.828 397.711 205.213 399.739C205.599 401.767 205.822 403.795 206.146 405.823C207.655 414.176 210.388 422.26 214.258 429.814C218.399 437.724 223.674 444.987 229.914 451.372C236.557 457.911 244.171 463.384 252.486 467.596C261.088 472.014 270.406 474.871 280.006 476.032C282.435 476.415 284.888 476.625 287.347 476.661C289.817 476.851 292.295 476.898 294.77 476.803C299.769 476.596 304.742 475.965 309.635 474.917C320.196 472.63 330.233 468.379 339.224 462.384L338.331 462.485L368.467 474.653L370.252 475.383L369.745 473.518L360.984 441.191L360.842 441.982C369.013 431.145 374.516 418.535 376.904 405.174C378.065 398.959 378.46 392.625 378.08 386.314C378.02 383.261 377.728 380.217 377.208 377.208C376.985 375.728 376.742 374.267 376.518 372.807C376.295 371.347 375.809 369.948 375.464 368.528C370.432 348.726 358.521 331.359 341.86 319.532C335.703 315.11 328.968 311.555 321.844 308.966L317.341 307.364L313.062 306.268L309.148 305.295C307.891 305.052 306.674 304.93 305.538 304.747C303.267 304.464 301.259 304.078 299.454 303.977L295.013 303.835H292.316C292.013 303.79 291.706 303.79 291.403 303.835C291.703 303.902 292.009 303.943 292.316 303.957L295.013 304.159L299.394 304.464C301.138 304.606 303.125 305.031 305.376 305.376C321.726 308.198 336.904 315.706 349.068 326.989C361.233 338.271 369.86 352.843 373.902 368.934C374.227 370.333 374.653 371.712 374.916 373.132C375.18 374.551 375.342 376.011 375.565 377.451C376.055 380.394 376.32 383.371 376.356 386.354C376.702 392.546 376.294 398.757 375.139 404.85C372.752 417.927 367.319 430.259 359.28 440.847L359.017 441.212L359.139 441.658C361.978 452.061 364.898 462.83 367.92 473.883L369.197 472.747L339.082 460.579L338.615 460.397L338.169 460.66C329.369 466.477 319.562 470.603 309.25 472.828C304.471 473.854 299.613 474.471 294.729 474.674C292.308 474.758 289.885 474.711 287.469 474.532C285.072 474.492 282.68 474.289 280.31 473.923C270.925 472.796 261.814 470.015 253.399 465.71C245.23 461.622 237.74 456.301 231.192 449.932C225.074 443.686 219.889 436.589 215.8 428.861C211.964 421.478 209.231 413.573 207.688 405.397C207.383 403.369 207.079 401.341 206.775 399.455C206.471 397.569 206.511 395.399 206.369 393.533C205.635 378.669 208.822 363.872 215.61 350.628C222.397 337.383 232.548 326.156 245.043 318.071C252.398 313.198 260.493 309.548 269.014 307.262L273.983 305.944L278.444 305.214L282.257 304.585C283.433 304.443 284.508 304.423 285.461 304.342L289.821 304.017C290.345 303.997 290.866 303.942 291.383 303.855Z" fill="#263238"/>
</svg>
